STARTFONT 2.1
FONT -FontForge-Courgette-Book-R-Normal--36-360-72-72-P-187-ISO10646-1
SIZE 36 72 72
FONTBOUNDINGBOX 47 45 -7 -10
COMMENT "Generated by fontforge, http://fontforge.sourceforge.net"
COMMENT "Copyright (c) 2012, Sorkin Type Co (www.sorkintype.com) with Reserved Font Name "Courgette"."
STARTPROPERTIES 40
FOUNDRY "FontForge"
FAMILY_NAME "Courgette"
WEIGHT_NAME "Book"
SLANT "R"
SETWIDTH_NAME "Normal"
ADD_STYLE_NAME ""
PIXEL_SIZE 36
POINT_SIZE 360
RESOLUTION_X 72
RESOLUTION_Y 72
SPACING "P"
AVERAGE_WIDTH 187
CHARSET_REGISTRY "ISO10646"
CHARSET_ENCODING "1"
FONTNAME_REGISTRY ""
CHARSET_COLLECTIONS "ISO8859-2 ISO8859-9 ISO8859-4 ISO10646-1"
FONT_NAME "Courgette-Regular"
FACE_NAME "Courgette Regular"
COPYRIGHT "Copyright (c) 2012, Sorkin Type Co (www.sorkintype.com) with Reserved Font Name "Courgette"."
FONT_VERSION "1.002"
FONT_ASCENT 29
FONT_DESCENT 7
UNDERLINE_POSITION -4
UNDERLINE_THICKNESS 2
X_HEIGHT 17
CAP_HEIGHT 26
DEFAULT_CHAR 1
RAW_ASCENT 799
RAW_DESCENT 200
NORM_SPACE 11
RELATIVE_WEIGHT 40
RELATIVE_SETWIDTH 50
SUPERSCRIPT_X 0
SUPERSCRIPT_Y 17
SUPERSCRIPT_SIZE 23
SUBSCRIPT_X 0
SUBSCRIPT_Y 5
SUBSCRIPT_SIZE 23
AVG_LOWERCASE_WIDTH 180
AVG_UPPERCASE_WIDTH 211
ENDPROPERTIES
CHARS 407
STARTCHAR .null.dup1
ENCODING 0
SWIDTH 0 0
DWIDTH 0 0
BBX 1 1 0 0
BITMAP
00
ENDCHAR
STARTCHAR uni0001
ENCODING 1
SWIDTH 0 0
DWIDTH 0 0
BBX 1 1 0 0
BITMAP
00
ENDCHAR
STARTCHAR uni0002
ENCODING 2
SWIDTH 0 0
DWIDTH 0 0
BBX 1 1 0 0
BITMAP
00
ENDCHAR
STARTCHAR uni0003
ENCODING 3
SWIDTH 0 0
DWIDTH 0 0
BBX 1 1 0 0
BITMAP
00
ENDCHAR
STARTCHAR uni0004
ENCODING 4
SWIDTH 0 0
DWIDTH 0 0
BBX 1 1 0 0
BITMAP
00
ENDCHAR
STARTCHAR uni0005
ENCODING 5
SWIDTH 0 0
DWIDTH 0 0
BBX 1 1 0 0
BITMAP
00
ENDCHAR
STARTCHAR uni0006
ENCODING 6
SWIDTH 0 0
DWIDTH 0 0
BBX 1 1 0 0
BITMAP
00
ENDCHAR
STARTCHAR uni0007
ENCODING 7
SWIDTH 0 0
DWIDTH 0 0
BBX 1 1 0 0
BITMAP
00
ENDCHAR
STARTCHAR uni0008
ENCODING 8
SWIDTH 0 0
DWIDTH 0 0
BBX 1 1 0 0
BITMAP
00
ENDCHAR
STARTCHAR uni0009
ENCODING 9
SWIDTH 0 0
DWIDTH 0 0
BBX 1 1 0 0
BITMAP
00
ENDCHAR
STARTCHAR nonmarkingreturn
ENCODING 13
SWIDTH 0 0
DWIDTH 0 0
BBX 1 1 0 0
BITMAP
00
ENDCHAR
STARTCHAR uni0015
ENCODING 21
SWIDTH 0 0
DWIDTH 0 0
BBX 1 1 0 0
BITMAP
00
ENDCHAR
STARTCHAR uni0016
ENCODING 22
SWIDTH 0 0
DWIDTH 0 0
BBX 1 1 0 0
BITMAP
00
ENDCHAR
STARTCHAR uni0017
ENCODING 23
SWIDTH 0 0
DWIDTH 0 0
BBX 1 1 0 0
BITMAP
00
ENDCHAR
STARTCHAR uni0018
ENCODING 24
SWIDTH 0 0
DWIDTH 0 0
BBX 1 1 0 0
BITMAP
00
ENDCHAR
STARTCHAR uni0019
ENCODING 25
SWIDTH 0 0
DWIDTH 0 0
BBX 1 1 0 0
BITMAP
00
ENDCHAR
STARTCHAR space
ENCODING 32
SWIDTH 307 0
DWIDTH 11 0
BBX 1 1 0 0
BITMAP
00
ENDCHAR
STARTCHAR exclam
ENCODING 33
SWIDTH 417 0
DWIDTH 15 0
BBX 13 27 3 0
BITMAP
0038
00F8
00F8
01F0
01E0
03E0
03C0
07C0
0780
0F80
0F00
0F00
0E00
1E00
1E00
1C00
1C00
1800
1800
1800
0000
0000
7800
F800
FC00
F800
7800
ENDCHAR
STARTCHAR quotedbl
ENCODING 34
SWIDTH 437 0
DWIDTH 16 0
BBX 14 9 5 20
BITMAP
3C38
7C7C
78F8
F0F0
F0E0
E1E0
E1C0
C1C0
C080
ENDCHAR
STARTCHAR numbersign
ENCODING 35
SWIDTH 725 0
DWIDTH 26 0
BBX 24 27 2 0
BITMAP
000E1C
001E3C
001C3C
001C38
003C78
003870
003870
0078F0
0070E0
1FFFFF
3FFFFE
3FFFFE
00E1C0
01C380
01C380
01C380
7FFFF8
FFFFF8
FFFFF0
070E00
070E00
060E00
060C00
0E1C00
0C1C00
0C1800
183000
ENDCHAR
STARTCHAR dollar
ENCODING 36
SWIDTH 545 0
DWIDTH 20 0
BBX 19 37 2 -5
BITMAP
0000E0
0001E0
0001C0
000380
000380
003F00
00FF80
01E1C0
03C1C0
0780E0
0F00E0
0F01E0
0E01E0
1E03E0
1E07C0
1F0FC0
1F0F80
1F0F00
0F8000
0FC000
07C000
03E000
03F000
01F000
20F000
707000
F07000
F07000
F07000
F8E000
7FC000
3F0000
180000
380000
300000
300000
200000
ENDCHAR
STARTCHAR percent
ENCODING 37
SWIDTH 876 0
DWIDTH 32 0
BBX 26 27 3 0
BITMAP
07C00380
1FE00700
3CF00F00
78F01E00
78F03C00
F0F03800
F0F07800
E0E0F000
E1E1E000
E3C3C000
E7C78000
7F070000
3E0F0000
001E0000
003C1F00
00787F80
00F0F3C0
00E1E1C0
01E1E1C0
03C3C3C0
0783C3C0
0F038380
0E038780
1C038F00
38038F00
7801FC00
6000F800
ENDCHAR
STARTCHAR ampersand
ENCODING 38
SWIDTH 563 0
DWIDTH 20 0
BBX 19 27 1 0
BITMAP
003F00
00FFC0
01F0E0
07C060
078060
0F00E0
1F01E0
1E03E0
1E0FC0
1E0FC0
1C0780
1E0000
1E6000
0FF000
07F000
1F8000
3F0000
3C1020
787FE0
783FE0
F01F80
F01E00
F01C00
F03C00
7C7800
3FF000
1FC000
ENDCHAR
STARTCHAR quotesingle
ENCODING 39
SWIDTH 231 0
DWIDTH 8 0
BBX 6 9 5 20
BITMAP
3C
7C
78
F0
F0
E0
E0
C0
C0
ENDCHAR
STARTCHAR parenleft
ENCODING 40
SWIDTH 478 0
DWIDTH 17 0
BBX 18 41 4 -9
BITMAP
000080
0003C0
000700
001E00
003C00
007800
00F000
01E000
01C000
03C000
078000
070000
0F0000
1E0000
1E0000
1C0000
3C0000
3C0000
780000
780000
780000
700000
F00000
F00000
F00000
F00000
F00000
F00000
F00000
F00000
F00000
F00000
700000
700000
780000
380000
3C0000
1C0000
1E0000
0F0000
070000
ENDCHAR
STARTCHAR parenright
ENCODING 41
SWIDTH 478 0
DWIDTH 17 0
BBX 18 41 -4 -9
BITMAP
001000
003C00
001E00
000E00
000F00
000700
000780
000380
000380
0003C0
0003C0
0003C0
0003C0
0003C0
0003C0
0003C0
0003C0
0003C0
0003C0
0003C0
000380
000780
000780
000780
000F00
000F00
000E00
001E00
001C00
003C00
007800
007800
00F000
01E000
01C000
038000
070000
0E0000
3C0000
780000
E00000
ENDCHAR
STARTCHAR asterisk
ENCODING 42
SWIDTH 518 0
DWIDTH 19 0
BBX 13 14 5 13
BITMAP
03C0
03C0
0780
4780
E700
7678
7FF8
3FF0
1F00
3F00
7380
E3C0
C1C0
00C0
ENDCHAR
STARTCHAR plus
ENCODING 43
SWIDTH 617 0
DWIDTH 22 0
BBX 18 18 2 4
BITMAP
004000
00E000
00E000
00E000
00E000
00E000
00E000
00E000
7FFFC0
FFFFC0
00E000
00E000
00E000
00E000
00E000
00E000
00E000
00C000
ENDCHAR
STARTCHAR comma
ENCODING 44
SWIDTH 312 0
DWIDTH 11 0
BBX 7 10 0 -5
BITMAP
3C
3E
3E
3E
1C
1C
38
38
70
C0
ENDCHAR
STARTCHAR hyphen
ENCODING 45
SWIDTH 452 0
DWIDTH 16 0
BBX 11 3 3 9
BITMAP
7FE0
FFE0
FFC0
ENDCHAR
STARTCHAR period
ENCODING 46
SWIDTH 270 0
DWIDTH 10 0
BBX 6 5 1 0
BITMAP
78
FC
FC
F8
78
ENDCHAR
STARTCHAR slash
ENCODING 47
SWIDTH 405 0
DWIDTH 15 0
BBX 24 38 -3 -6
BITMAP
000007
00000F
00000E
00001C
00003C
000038
000078
000070
0000F0
0000E0
0001C0
0001C0
000380
000780
000700
000F00
000E00
001C00
001C00
003800
007800
007000
00F000
00E000
01E000
01C000
038000
038000
070000
0F0000
0E0000
1E0000
1C0000
380000
380000
700000
F00000
E00000
ENDCHAR
STARTCHAR zero
ENCODING 48
SWIDTH 621 0
DWIDTH 22 0
BBX 20 27 2 0
BITMAP
000FC0
003FE0
0078F0
01F070
01E070
03C070
078070
0F8070
0F0070
1E00F0
1E00F0
3C00F0
3C01F0
3C01E0
7801E0
7803E0
7803C0
7007C0
F00780
F00F80
F00F00
F01E00
703C00
707800
78F000
3FE000
1F8000
ENDCHAR
STARTCHAR one
ENCODING 49
SWIDTH 405 0
DWIDTH 15 0
BBX 13 27 2 0
BITMAP
0070
00F8
03F8
07F8
1FF0
3FF0
18F0
00F0
01E0
01E0
01E0
03C0
03C0
0380
0780
0780
0700
0F00
0E00
1E00
1C00
1C00
3800
3000
7000
6000
C000
ENDCHAR
STARTCHAR two
ENCODING 50
SWIDTH 524 0
DWIDTH 19 0
BBX 19 27 0 0
BITMAP
003F00
00FFC0
01E1C0
03C0E0
0380E0
0780E0
0780E0
0781E0
07C1E0
07C3C0
0307C0
000F80
001F00
003E00
007C00
00F800
01F000
03E000
07C000
0F0000
0E0000
1C0000
380300
7FFF00
7FFF00
F1FE00
603C00
ENDCHAR
STARTCHAR three
ENCODING 51
SWIDTH 537 0
DWIDTH 19 0
BBX 19 27 1 0
BITMAP
003F00
00FF80
01E3C0
0381C0
0781E0
0F01E0
0F01E0
0F01E0
0F83C0
0F83C0
070780
000F80
003F00
00FE00
01FC00
03F800
007C00
001C00
001E00
101E00
783C00
783C00
F03C00
707800
79F000
3FE000
1F8000
ENDCHAR
STARTCHAR four
ENCODING 52
SWIDTH 529 0
DWIDTH 19 0
BBX 17 27 2 0
BITMAP
038000
03C000
03C000
07C000
078000
078000
0F8000
0F0600
1F0700
1E0F00
3E0F00
3C0F00
781E00
781E00
F03E00
E03C00
7FFF00
3FFF80
007800
00F000
00E000
01E000
01C000
01C000
038000
030000
060000
ENDCHAR
STARTCHAR five
ENCODING 53
SWIDTH 540 0
DWIDTH 19 0
BBX 21 27 1 0
BITMAP
00F038
00FFF8
01FFF0
01C7F0
01C000
03C000
038000
038000
070000
077C00
0FFE00
0FFF00
1F0F00
1E0F80
0C0780
000780
000780
000F00
000F00
380F00
781E00
F01E00
F03C00
F07800
71F000
3FE000
1F8000
ENDCHAR
STARTCHAR six
ENCODING 54
SWIDTH 554 0
DWIDTH 20 0
BBX 19 27 2 0
BITMAP
001F80
007FC0
00F1C0
01E0E0
03C1E0
0783C0
0F07C0
0F07C0
1E0300
1E0000
3C0000
3CF800
7BFE00
7F0E00
7E0F00
7C0F00
7C0F00
F80F00
F80F00
F80F00
701E00
701E00
703C00
787C00
38F800
1FE000
0F8000
ENDCHAR
STARTCHAR seven
ENCODING 55
SWIDTH 473 0
DWIDTH 17 0
BBX 16 27 4 0
BITMAP
601E
7FFF
7FFF
7FCE
3E1E
003C
0038
0070
00F0
01E0
03C0
03C0
0780
0F00
0F00
1E00
1E00
3C00
3C00
7800
7800
F000
F000
F000
F000
F000
7000
ENDCHAR
STARTCHAR eight
ENCODING 56
SWIDTH 524 0
DWIDTH 19 0
BBX 18 27 2 0
BITMAP
007C00
01FF00
038F80
070780
0E03C0
0E03C0
0E03C0
0E03C0
0E0380
0F0780
0F0780
0F8F00
079E00
07FC00
03F000
07E000
1FF000
3CF000
787800
F07800
E03800
E03800
E03800
F07000
F8E000
7FC000
1F8000
ENDCHAR
STARTCHAR nine
ENCODING 57
SWIDTH 554 0
DWIDTH 20 0
BBX 18 27 2 0
BITMAP
007E00
01FF00
03C780
078380
0F03C0
1E03C0
1E03C0
1E03C0
3C03C0
3C07C0
3C0780
3C0F80
3C0F80
3C1F80
1E3F80
1FFF00
07CF00
000E00
001E00
001C00
303C00
F03800
F07000
E0E000
F1C000
FF8000
3E0000
ENDCHAR
STARTCHAR colon
ENCODING 58
SWIDTH 312 0
DWIDTH 11 0
BBX 9 17 1 0
BITMAP
0400
1F00
1F80
1F80
1F00
0E00
0000
0000
0000
0000
0000
0000
7800
FC00
FC00
FC00
7800
ENDCHAR
STARTCHAR semicolon
ENCODING 59
SWIDTH 312 0
DWIDTH 11 0
BBX 10 22 0 -5
BITMAP
0200
0780
0FC0
0FC0
0F80
0700
0000
0000
0000
0000
0000
0000
3C00
3E00
3E00
3E00
1C00
1C00
3800
3800
7000
C000
ENDCHAR
STARTCHAR less
ENCODING 60
SWIDTH 637 0
DWIDTH 23 0
BBX 18 19 2 2
BITMAP
0000C0
0001C0
0007C0
001F00
007C00
01F800
07E000
0F8000
3E0000
FC0000
7E0000
1F0000
0FC000
03F000
00FC00
003E00
000F80
0003C0
0000C0
ENDCHAR
STARTCHAR equal
ENCODING 61
SWIDTH 617 0
DWIDTH 22 0
BBX 18 9 3 9
BITMAP
FFFFC0
FFFF80
000000
000000
000000
000000
000000
FFFF80
FFFF80
ENDCHAR
STARTCHAR greater
ENCODING 62
SWIDTH 606 0
DWIDTH 22 0
BBX 18 19 3 2
BITMAP
E00000
F00000
7C0000
1F0000
0FC000
03F000
00FC00
007E00
001F80
0007C0
001F00
007C00
01F800
03E000
0F8000
3E0000
F80000
E00000
C00000
ENDCHAR
STARTCHAR question
ENCODING 63
SWIDTH 516 0
DWIDTH 19 0
BBX 16 27 3 0
BITMAP
00FC
03FE
0787
0707
0F07
0F07
0F07
0F0F
061F
003E
007C
00F8
03F0
07E0
0F80
0F00
1E00
1C00
1C00
1800
0000
0000
7800
FC00
FC00
F800
7000
ENDCHAR
STARTCHAR at
ENCODING 64
SWIDTH 905 0
DWIDTH 33 0
BBX 30 29 2 -5
BITMAP
0003FE00
001FFF80
007FFFE0
01F803F0
03E000F0
07800078
0F000038
1E03CE3C
1C0FEE1C
381E7E1C
783C3C1C
70783C1C
7070381C
F0F07818
F0F07838
E0E0F038
E0E0F070
E1E1F0E0
E0E161E0
E0E363C0
F0FE7F00
F0783C00
70000000
78000000
3C000000
3E000000
1F806000
07FFC000
00FF0000
ENDCHAR
STARTCHAR A
ENCODING 65
SWIDTH 615 0
DWIDTH 22 0
BBX 26 27 -3 0
BITMAP
000003C0
00000FC0
00003FC0
00007BC0
0000E380
0001C780
00038780
00078F00
00070F00
000E0F00
001C1E00
001C1E00
00381C00
007FFF80
00FFFF80
03FFFF00
07E07800
01C07800
03C07800
03807000
0780F000
0700F000
0F00F000
1E00F200
3C00FF00
F8007E00
F0003C00
ENDCHAR
STARTCHAR B
ENCODING 66
SWIDTH 551 0
DWIDTH 20 0
BBX 20 27 2 0
BITMAP
01FE00
1FFF80
3F83C0
7C01E0
3200E0
0380F0
07C0F0
0F80F0
0F01E0
1F01E0
1E03C0
3E0780
3C1F80
7C7E00
7FFC00
7FF800
FC3E00
F01E00
F00E00
E00F00
E00E00
E01E00
E03E00
E07C00
F1F800
7FE000
3F0000
ENDCHAR
STARTCHAR C
ENCODING 67
SWIDTH 533 0
DWIDTH 19 0
BBX 20 27 2 0
BITMAP
000F80
003FC0
00F8E0
01E070
03C070
0780F0
0F80F0
1F01E0
1E03E0
3E07C0
3C0FC0
7C0780
780000
780000
F80000
F00000
F00000
F00000
F00000
F00000
F00000
F00000
F00400
781C00
7C7C00
3FF800
0FE000
ENDCHAR
STARTCHAR D
ENCODING 68
SWIDTH 630 0
DWIDTH 23 0
BBX 21 27 2 0
BITMAP
03FC00
1FFF80
3FFFE0
3F03F0
3C00F0
000078
03C078
07C078
078078
0F8078
0F0078
1F0078
1E0078
1E0078
3C00F0
3C00F0
7C01E0
7803E0
7803C0
F80780
F00F00
F01E00
F07C00
E0F800
E3F000
7FC000
3E0000
ENDCHAR
STARTCHAR E
ENCODING 69
SWIDTH 509 0
DWIDTH 18 0
BBX 20 27 1 0
BITMAP
001F80
007FE0
01F870
03E070
07C070
0780F0
0F01F0
0F03E0
1E07C0
1E0F80
1E0700
1E0000
0E0000
0F7000
07F800
07F000
1F8000
3F0000
3E0000
7C0000
780000
F80400
F80E00
781C00
787C00
3FF000
0FC000
ENDCHAR
STARTCHAR F
ENCODING 70
SWIDTH 518 0
DWIDTH 19 0
BBX 21 27 1 0
BITMAP
0FF008
3FFFF8
7FFFF8
7C3FF0
783800
707800
307800
00F000
00F000
00F000
01E000
01E000
01FF00
07FF80
1FFF80
1FC000
078000
078000
0F8000
0F0000
0F0000
1E0000
1E0000
3C0000
780000
F00000
E00000
ENDCHAR
STARTCHAR G
ENCODING 71
SWIDTH 598 0
DWIDTH 22 0
BBX 20 27 2 0
BITMAP
000F80
003FE0
00F860
01F070
03E070
07C0F0
0F80F0
0F01E0
1E03E0
3E07C0
3C0F80
7C0700
780000
780000
F80820
F03FE0
F07FE0
F03FC0
F00F80
F00E00
F00E00
F00C00
F01C00
783800
7C7000
3FE000
0F8000
ENDCHAR
STARTCHAR H
ENCODING 72
SWIDTH 668 0
DWIDTH 24 0
BBX 26 27 -1 0
BITMAP
03F00180
0FF801C0
077803C0
007803C0
007803C0
007803C0
00F00780
00F00780
00F00780
00F00F00
01E00F00
01E00F00
03FFFF80
0FFFFF80
07C01F00
03C03C00
07803C00
07807800
0F007800
0F007000
1E00F000
1E00F000
3C00E000
3C00E200
7800FC00
F000FC00
E0007000
ENDCHAR
STARTCHAR I
ENCODING 73
SWIDTH 327 0
DWIDTH 12 0
BBX 13 27 0 0
BITMAP
07E0
0FF0
0E78
0070
00F0
00F0
00F0
00F0
01F0
01E0
01E0
01E0
03C0
03C0
03C0
0780
0780
0780
0F00
0F00
1E00
1E00
3C00
3800
7800
F000
E000
ENDCHAR
STARTCHAR J
ENCODING 74
SWIDTH 393 0
DWIDTH 14 0
BBX 21 37 -6 -10
BITMAP
0007E0
001FF8
007E78
00F878
00F078
006078
0000F8
0000F8
0000F0
0000F0
0001F0
0001F0
0001E0
0003E0
0003E0
0003C0
0007C0
000780
000780
000F80
000F00
001F00
001E00
003E00
003C00
007C00
007800
00F800
00F000
01E000
03C000
07C000
0F8000
1F0000
3E0000
F80000
F00000
ENDCHAR
STARTCHAR K
ENCODING 75
SWIDTH 616 0
DWIDTH 22 0
BBX 25 27 -2 0
BITMAP
03F00700
07F80780
07780780
00780780
00780780
00780780
00780F00
00781F00
00F01E00
00F03C00
00F07800
01F1F000
01E3C000
01E78000
03EE0000
03FC0000
03FE0000
07DF0000
078F8000
07878000
0F07C000
0F03E000
1E03F000
3E01F800
7C00FF00
F8007F00
70003C00
ENDCHAR
STARTCHAR L
ENCODING 76
SWIDTH 517 0
DWIDTH 19 0
BBX 21 27 -1 0
BITMAP
0003E0
000FF0
001E38
003C38
003C38
007838
00F838
00F078
01F0F0
01E1F0
01E3E0
03E7E0
03C7C0
03C100
078000
078000
0F8000
0F0000
0F0000
1E0000
1E0000
3C0000
380000
79FF80
FFFF80
FFFFC0
7800C0
ENDCHAR
STARTCHAR M
ENCODING 77
SWIDTH 931 0
DWIDTH 34 0
BBX 38 27 -4 0
BITMAP
00000F0038
00003F80FC
00007F01F8
0000EF03B8
0001CF0778
0001DE0F70
00039E0EF0
00071C1CF0
000F3C1CE0
000E3C39E0
001C3871E0
001C7871C0
003878E3C0
003878E3C0
007071C380
0070F1C780
00E0F38780
01E0F38780
01C0F70700
03C0F70F00
0380FE0F00
0700EE0F00
0F00FC0F00
1E00F80F10
3C00F80FF0
FC00F007E0
70006003C0
ENDCHAR
STARTCHAR N
ENCODING 78
SWIDTH 708 0
DWIDTH 25 0
BBX 27 27 1 0
BITMAP
001C0380
003C07C0
007C03E0
00FC03E0
01FC03E0
03BC01E0
03BC03E0
073C03C0
073C03C0
0E3C0380
0E3C0780
1C3C0780
1C3C0700
1C3C0E00
383C0E00
381E1C00
781E1C00
701E3800
701E3800
701F7000
F00F7000
E00F6000
E007E000
E007C000
E003C000
E003C000
E001C000
ENDCHAR
STARTCHAR O
ENCODING 79
SWIDTH 655 0
DWIDTH 24 0
BBX 22 27 2 0
BITMAP
000FC0
003FF0
007878
01F038
03E03C
07C03C
07803C
0F003C
1F003C
1E003C
3E003C
3C003C
7C0078
780078
7800F8
7800F0
F000F0
F001E0
F003E0
F003C0
F007C0
F00F80
701F00
703E00
387C00
1FF000
0FC000
ENDCHAR
STARTCHAR P
ENCODING 80
SWIDTH 553 0
DWIDTH 20 0
BBX 23 27 -1 0
BITMAP
003FC0
01FFF0
07F83C
07C01E
07801E
02301E
00781E
00781E
00F01E
00F03E
01E03C
01E07C
01E1F8
03C3F0
03DFC0
07FF00
07F800
078000
0F0000
0F0000
1E0000
1E0000
3C0000
3C0000
780000
F00000
E00000
ENDCHAR
STARTCHAR Q
ENCODING 81
SWIDTH 655 0
DWIDTH 24 0
BBX 23 33 3 -6
BITMAP
001F80
007FE0
01F0E0
03C070
078070
0F0078
1E0078
1E0078
3C0078
7C0078
7800F8
7800F0
F000F0
F001F0
F001E0
F003E0
F003C0
F00780
F00F80
F81F00
7C3E00
787C00
10F800
01E000
07C000
3FE000
3FF800
00FE00
003F00
001FC2
0007FE
0003FC
0000F8
ENDCHAR
STARTCHAR R
ENCODING 82
SWIDTH 623 0
DWIDTH 22 0
BBX 24 27 -1 0
BITMAP
003FC0
01FFF8
07F03C
07C01E
03100E
00380E
00780F
00780E
00F01E
00F01E
01F03C
01E07C
01E1F8
03E3F0
03FFC0
03FF00
07BC00
079E00
0F0F00
0F0F00
1F0780
1E0780
3C03C0
3C03E0
7801F0
F000FE
E0007C
ENDCHAR
STARTCHAR S
ENCODING 83
SWIDTH 474 0
DWIDTH 17 0
BBX 19 27 1 0
BITMAP
003E00
00FF80
03E3C0
0781C0
0701E0
0F01E0
0E01E0
1E01E0
1E03C0
1E07C0
1E0F80
1F0F80
1F0600
0F8000
0F8000
07C000
07E000
03E000
01F000
20F000
60F000
E07000
E07000
F0E000
F0E000
7F8000
3F0000
ENDCHAR
STARTCHAR T
ENCODING 84
SWIDTH 471 0
DWIDTH 17 0
BBX 21 27 2 0
BITMAP
1FF018
3FFFF8
7FFFF0
F83FE0
F07800
607800
607800
00F000
00F000
00F000
01E000
01E000
01E000
03E000
03C000
03C000
078000
078000
078000
0F0000
0F0000
0E0000
1E0000
1C0000
3C0000
F80000
600000
ENDCHAR
STARTCHAR U
ENCODING 85
SWIDTH 624 0
DWIDTH 22 0
BBX 24 27 1 0
BITMAP
03C006
03E00F
01E00F
01E01E
01E01E
03C03C
03C07C
07C078
0780F8
0780F8
0F01F0
0F01F0
1E03F0
1E03E0
3C07E0
3C07E0
380FC0
781FC0
781BC0
F03BC0
F07380
F06780
F0C780
F38788
FF03F8
FE03F0
7C01E0
ENDCHAR
STARTCHAR V
ENCODING 86
SWIDTH 587 0
DWIDTH 21 0
BBX 23 28 3 0
BITMAP
00003C
1F003C
7F803E
FFC01E
71E01E
03E01E
03C01E
07C03C
07807C
0F8078
0F00F8
1F01F0
1E01E0
3E03C0
3C0780
3C0F80
781F00
783C00
787800
F0F000
F1E000
F1C000
E38000
E70000
FE0000
FC0000
780000
300000
ENDCHAR
STARTCHAR W
ENCODING 87
SWIDTH 941 0
DWIDTH 34 0
BBX 34 27 2 0
BITMAP
0F80000380
3FC0000F80
7FE0000FC0
78E00007C0
01E00007C0
03E00C07C0
03C03E03C0
07C07C03C0
07C0FC03C0
0F81F80780
0F83F00780
1F07F00780
1F0FE00780
1E0FE00F00
3E1DC00F00
3C3FC00E00
3C7BC01E00
7873C01C00
78E3803C00
79C3803800
7187807000
738780E000
F70381E000
7603838000
7E03C70000
7C01FE0000
3800F80000
ENDCHAR
STARTCHAR X
ENCODING 88
SWIDTH 552 0
DWIDTH 20 0
BBX 28 27 -2 0
BITMAP
000C00E0
001C03F0
003C07C0
003C0F00
003C1E00
003C3C00
003C7800
003C7000
003CE000
003DE000
003FC000
003F8000
003F0000
003F0000
001E0000
003E0000
003E0000
007E0000
00EF0000
01EF0000
03CF0000
078F8000
0F07C000
1E07C400
3C03FC00
F801F800
F000F000
ENDCHAR
STARTCHAR Y
ENCODING 89
SWIDTH 580 0
DWIDTH 21 0
BBX 24 37 1 -10
BITMAP
03C006
07E00F
03E01F
01E01E
01E03E
03C03C
03C07C
078078
0780F8
0F80F8
0F01F0
0F01F0
1E03F0
1E03E0
3C07E0
3C07C0
780FC0
781FC0
781B80
F03F80
F07780
F0E700
F0CF00
F38E00
FF1E00
FE1C00
783C00
003800
007800
00F000
01E000
01E000
03C000
078000
1F0000
7C0000
780000
ENDCHAR
STARTCHAR Z
ENCODING 90
SWIDTH 501 0
DWIDTH 18 0
BBX 22 27 0 0
BITMAP
0601F0
07FFF8
07FFBC
07FE78
03F0F8
0001F0
0003E0
0007C0
000F80
001F00
003E00
007C00
00F800
01F000
01E000
03C000
078000
0F0000
1E0000
3C0000
380000
780000
F0FE00
EFFF00
FFFF80
FE0380
F00180
ENDCHAR
STARTCHAR bracketleft
ENCODING 91
SWIDTH 396 0
DWIDTH 14 0
BBX 19 38 0 -6
BITMAP
0007E0
000FC0
000F00
001E00
001E00
001C00
003C00
003C00
003800
007800
007800
007000
00F000
00F000
01E000
01E000
01C000
03C000
03C000
038000
078000
078000
070000
0F0000
0F0000
0E0000
1E0000
1E0000
1C0000
3C0000
3C0000
380000
780000
780000
700000
F00000
FE0000
FE0000
ENDCHAR
STARTCHAR backslash
ENCODING 92
SWIDTH 464 0
DWIDTH 17 0
BBX 12 38 2 -6
BITMAP
C000
E000
E000
E000
7000
7000
7000
7000
3800
3800
3800
3800
1C00
1C00
1C00
1C00
0E00
0E00
0E00
0E00
0700
0700
0700
0700
0380
0380
0380
0380
01C0
01C0
01C0
01C0
00E0
00E0
00E0
00E0
0070
0070
ENDCHAR
STARTCHAR bracketright
ENCODING 93
SWIDTH 394 0
DWIDTH 14 0
BBX 19 38 -2 -6
BITMAP
000FC0
001FE0
0001E0
0003C0
0003C0
000380
000780
000780
000700
000F00
000F00
000E00
001E00
001E00
001C00
003C00
003C00
003800
007800
007800
007000
00F000
00F000
00E000
01E000
01E000
01C000
03C000
038000
038000
078000
070000
070000
0F0000
0E0000
1E0000
7E0000
FC0000
ENDCHAR
STARTCHAR asciicircum
ENCODING 94
SWIDTH 540 0
DWIDTH 19 0
BBX 16 15 3 12
BITMAP
01C0
01C0
03E0
03E0
07F0
0770
0F78
0E38
1C3C
3C1C
380E
700E
7007
E007
4002
ENDCHAR
STARTCHAR underscore
ENCODING 95
SWIDTH 530 0
DWIDTH 19 0
BBX 24 3 -6 -6
BITMAP
7FFFFF
FFFFFF
FFFFFE
ENDCHAR
STARTCHAR grave
ENCODING 96
SWIDTH 219 0
DWIDTH 8 0
BBX 5 9 1 19
BITMAP
70
F0
F0
F0
70
70
38
18
08
ENDCHAR
STARTCHAR a
ENCODING 97
SWIDTH 541 0
DWIDTH 20 0
BBX 18 18 1 0
BITMAP
00F9C0
03FFC0
078FC0
0F0780
1E0780
3C0F00
3C0F00
780F00
781E00
781E00
F03C00
F07C00
F07C00
F0FC00
F1FE80
7F9F80
7F1F80
3E0E00
ENDCHAR
STARTCHAR b
ENCODING 98
SWIDTH 525 0
DWIDTH 19 0
BBX 17 30 1 0
BITMAP
010000
03C000
03C000
03C000
03C000
038000
078000
078000
078000
070000
0F0000
0F0000
0E3C00
1EFE00
1DCF00
1F8F00
3F0F80
3E0F80
3C0F80
7C0F00
780F00
780F00
701F00
F01E00
F03E00
F07C00
70F800
73F000
3FC000
1F0000
ENDCHAR
STARTCHAR c
ENCODING 99
SWIDTH 465 0
DWIDTH 17 0
BBX 15 18 1 0
BITMAP
00F8
03FE
078E
0F0E
1E0E
3C1E
3C1E
783C
783C
F800
F000
F000
F000
F008
7018
7870
3FE0
1F80
ENDCHAR
STARTCHAR d
ENCODING 100
SWIDTH 557 0
DWIDTH 20 0
BBX 22 30 1 0
BITMAP
000008
00001C
00003C
00003C
000078
000078
000070
0000F0
0000F0
0000E0
0001E0
0001E0
0079C0
01FFC0
03C7C0
070780
0E0780
1E0780
3C0700
3C0F00
780F00
781F00
781E00
703E00
F07E00
707E00
79DE40
7FDFC0
7F8FC0
1E0700
ENDCHAR
STARTCHAR e
ENCODING 101
SWIDTH 471 0
DWIDTH 17 0
BBX 15 18 1 0
BITMAP
00F8
01FE
078E
0F0E
1E0E
1E1E
3C1E
7C3E
787C
79F8
7FE0
FF00
F000
7008
7818
7878
3FF0
0FC0
ENDCHAR
STARTCHAR f
ENCODING 102
SWIDTH 393 0
DWIDTH 14 0
BBX 20 34 -1 -5
BITMAP
0003C0
000FF0
001E70
003C70
003C70
0078F0
0079F0
0071E0
00F040
00F000
00F000
00E000
01E000
01FE00
07FF00
1FFF00
1FC000
038000
078000
078000
078000
0F0000
0F0000
0F0000
0E0000
1E0000
1E0000
3C0000
3C0000
3C0000
780000
780000
F00000
F00000
ENDCHAR
STARTCHAR g
ENCODING 103
SWIDTH 526 0
DWIDTH 19 0
BBX 18 28 1 -10
BITMAP
00F800
03FDC0
078FC0
0F07C0
1E0780
1E0780
3C0780
7C0F00
780F00
781F00
F81E00
F03E00
F03E00
F07C00
70FC00
79FC00
7FB800
1E3800
007800
007000
00F000
00E000
01E000
03C000
078000
0F0000
7E0000
380000
ENDCHAR
STARTCHAR h
ENCODING 104
SWIDTH 555 0
DWIDTH 20 0
BBX 19 30 0 0
BITMAP
004000
007000
00F000
00F000
00F000
00F000
00E000
01E000
01E000
01E000
01C000
03C000
03C780
038FC0
079FE0
07B9E0
0773C0
0F63C0
0EC3C0
0F8780
1F0780
1F0F00
1E0F00
3C1E00
3C1E00
781E00
781E40
F01FC0
F01F80
600F00
ENDCHAR
STARTCHAR i
ENCODING 105
SWIDTH 286 0
DWIDTH 10 0
BBX 11 27 1 0
BITMAP
03C0
07E0
07E0
07C0
0380
0000
0000
0000
0000
0F00
1F00
0F00
0F00
0E00
1E00
1E00
1C00
3C00
3800
7800
7000
F000
F000
F000
FE00
FC00
7800
ENDCHAR
STARTCHAR j
ENCODING 106
SWIDTH 281 0
DWIDTH 10 0
BBX 17 37 -6 -10
BITMAP
000F00
001F80
001F80
001F00
000E00
000000
000000
000000
000000
003C00
007E00
003E00
003E00
003C00
003C00
003C00
003C00
003C00
003800
007800
007800
007000
00F000
00F000
00E000
01E000
01E000
03C000
03C000
078000
070000
0F0000
0E0000
1C0000
380000
F00000
E00000
ENDCHAR
STARTCHAR k
ENCODING 107
SWIDTH 497 0
DWIDTH 18 0
BBX 18 30 0 0
BITMAP
004000
007000
00F000
00F000
00F000
00F000
00E000
01E000
01E000
01E000
01C000
03C000
03C380
0387C0
0783C0
0783C0
0707C0
0F0F80
0E1F00
0E7C00
1FF000
1FC000
1FC000
3DE000
3DE000
78F000
78F880
F07F80
F03F00
601E00
ENDCHAR
STARTCHAR l
ENCODING 108
SWIDTH 279 0
DWIDTH 10 0
BBX 11 30 1 0
BITMAP
0080
01C0
01E0
01C0
03C0
03C0
03C0
03C0
0780
0780
0780
0700
0F00
0F00
0E00
1E00
1E00
1C00
3C00
3800
3800
7800
7800
7000
F000
F000
F200
FE00
7C00
3800
ENDCHAR
STARTCHAR m
ENCODING 109
SWIDTH 814 0
DWIDTH 29 0
BBX 28 18 0 0
BITMAP
070381E0
0F8FC3F0
079FC7F0
07B9CCF0
0731D8F0
0F61F1E0
0FC3F1E0
0F83E3E0
1F87C3C0
1F0787C0
1E0F8780
3C0F0780
3C0F0F00
781E0F00
781E0F20
F03C0FE0
F03C07E0
60180380
ENDCHAR
STARTCHAR n
ENCODING 110
SWIDTH 561 0
DWIDTH 20 0
BBX 19 18 0 0
BITMAP
070380
0F8FC0
079FE0
07B9E0
0731E0
0F63C0
0FC3C0
0F8780
1F8780
1F0F80
1E0F00
3C0F00
3C1E00
781E00
781E40
F01FC0
F00FC0
600700
ENDCHAR
STARTCHAR o
ENCODING 111
SWIDTH 514 0
DWIDTH 19 0
BBX 16 18 1 0
BITMAP
00F8
03FE
078E
0F0F
1E0F
3E0F
3C0F
7C0F
780F
781F
F81E
F03E
F03C
F07C
70F8
79F0
3FE0
1F80
ENDCHAR
STARTCHAR p
ENCODING 112
SWIDTH 550 0
DWIDTH 20 0
BBX 21 28 -3 -10
BITMAP
01C1E0
03E7F0
01EE78
01FC78
01F838
01F038
01E078
03E078
03C078
03C078
0380F0
0780F0
0781E0
0783C0
0F87C0
0FDF00
0EFE00
0E7800
1E0000
1E0000
1C0000
3C0000
3C0000
380000
780000
780000
F00000
600000
ENDCHAR
STARTCHAR q
ENCODING 113
SWIDTH 533 0
DWIDTH 19 0
BBX 19 28 1 -10
BITMAP
007800
01FCC0
07C7E0
0F07C0
1E07C0
1E0780
3C0F80
3C0F80
780F00
781F00
781E00
F03E00
F07C00
70FC00
79DC00
7FB800
3F3800
1E7800
007000
007000
00F000
00F000
00E000
00E000
00E000
00E000
00E000
007000
ENDCHAR
STARTCHAR r
ENCODING 114
SWIDTH 407 0
DWIDTH 15 0
BBX 15 18 1 0
BITMAP
1E0E
3F3E
1E7E
0E7E
1ECC
1F80
1D80
1F00
3E00
3E00
3C00
7800
7800
7000
F000
F000
E000
E000
ENDCHAR
STARTCHAR s
ENCODING 115
SWIDTH 423 0
DWIDTH 15 0
BBX 15 18 0 0
BITMAP
01F8
07FC
0F1E
0E0E
0E0E
1E1C
0F00
0F80
0F80
07C0
03E0
03E0
21E0
70E0
F0E0
79E0
7FC0
3F00
ENDCHAR
STARTCHAR t
ENCODING 116
SWIDTH 358 0
DWIDTH 13 0
BBX 12 23 3 0
BITMAP
0380
0780
0780
0F00
0F00
7FF0
FFE0
3C00
3C00
3C00
7800
7800
7800
7000
F000
F000
E000
E000
E080
E380
FF00
FE00
7C00
ENDCHAR
STARTCHAR u
ENCODING 117
SWIDTH 553 0
DWIDTH 20 0
BBX 19 18 1 0
BITMAP
0E01C0
1F01E0
0F03C0
0F03C0
0F0780
1E0F80
1E0F00
3E1F00
3C1E00
3C3E00
787E00
78FC00
F0DC00
F19C00
F33C00
FE3F80
FC1F80
781E00
ENDCHAR
STARTCHAR v
ENCODING 118
SWIDTH 510 0
DWIDTH 18 0
BBX 17 18 1 0
BITMAP
0F0700
1F0F80
0F0780
0F0780
0F0780
1E0780
1E0780
1C0700
3C0F00
3C0E00
780E00
781C00
F03800
F07800
F0F000
FFC000
7F8000
7E0000
ENDCHAR
STARTCHAR w
ENCODING 119
SWIDTH 750 0
DWIDTH 27 0
BBX 26 18 1 0
BITMAP
1E000700
3F010780
1F078780
0F0783C0
0F0F03C0
0E0F0380
1E1F0380
1C1E0380
1C3E0780
3C7C0700
387C0700
78FC0E00
71BC1C00
73BC1C00
F73C7800
FE1FF000
F81FC000
700F8000
ENDCHAR
STARTCHAR x
ENCODING 120
SWIDTH 467 0
DWIDTH 17 0
BBX 19 18 -1 0
BITMAP
0180E0
0383E0
078780
078F00
079E00
07BC00
07B800
07F000
03E000
03C000
03C000
07E000
07E000
0EF000
1CF100
787F00
F07E00
603C00
ENDCHAR
STARTCHAR y
ENCODING 121
SWIDTH 549 0
DWIDTH 20 0
BBX 19 28 1 -10
BITMAP
0F00C0
1F01E0
0F03C0
0F03C0
0F07C0
0E0780
1E0F80
1E0F80
3C1F00
3C3F00
783F00
786E00
F0DE00
F1DE00
F39C00
FF3C00
FE3800
783800
007000
007000
00E000
01E000
01C000
038000
0F8000
1F0000
7C0000
380000
ENDCHAR
STARTCHAR z
ENCODING 122
SWIDTH 430 0
DWIDTH 15 0
BBX 17 18 0 0
BITMAP
0E0700
0FFF00
07FF80
038F00
001E00
007C00
00F800
01F000
03E000
07C000
0F8000
1E0000
3C0000
780000
7BF000
FFF800
FFF800
701800
ENDCHAR
STARTCHAR braceleft
ENCODING 123
SWIDTH 424 0
DWIDTH 15 0
BBX 18 38 2 -6
BITMAP
0007C0
001FC0
001E00
003C00
003C00
003800
007800
007800
007000
00F000
00F000
00F000
01E000
01E000
01E000
03C000
078000
3F0000
7E0000
3C0000
1C0000
1E0000
1E0000
1E0000
1E0000
1C0000
3C0000
3C0000
780000
780000
780000
F00000
F00000
F00000
F00000
F00000
FC0000
7C0000
ENDCHAR
STARTCHAR bar
ENCODING 124
SWIDTH 306 0
DWIDTH 11 0
BBX 4 38 4 -6
BITMAP
70
70
F0
F0
F0
F0
F0
F0
F0
F0
F0
F0
F0
F0
F0
F0
F0
F0
F0
F0
F0
F0
F0
F0
F0
F0
F0
F0
F0
F0
F0
F0
F0
F0
F0
F0
F0
60
ENDCHAR
STARTCHAR braceright
ENCODING 125
SWIDTH 424 0
DWIDTH 15 0
BBX 18 38 -2 -6
BITMAP
000F00
000F80
0003C0
0003C0
0003C0
000380
000780
000780
000700
000F00
000F00
001E00
001E00
001E00
001C00
001C00
001C00
001C00
000E00
001F00
007F00
00F800
01F000
01E000
03C000
03C000
03C000
038000
078000
078000
078000
0F0000
0F0000
0F0000
1E0000
3E0000
FC0000
F80000
ENDCHAR
STARTCHAR asciitilde
ENCODING 126
SWIDTH 624 0
DWIDTH 22 0
BBX 20 7 2 9
BITMAP
078030
1FE030
3FF060
71F8E0
60FFC0
C07F80
C01E00
ENDCHAR
STARTCHAR nonbreakingspace
ENCODING 160
SWIDTH 293 0
DWIDTH 11 0
BBX 1 1 0 0
BITMAP
00
ENDCHAR
STARTCHAR exclamdown
ENCODING 161
SWIDTH 417 0
DWIDTH 15 0
BBX 13 28 1 -8
BITMAP
00F0
01F8
01F8
01F8
00F0
0000
0000
0180
0380
0700
0700
0E00
0E00
1E00
1C00
3C00
3C00
7C00
7800
7800
7800
F800
F000
F000
F000
F000
7000
7000
ENDCHAR
STARTCHAR cent
ENCODING 162
SWIDTH 487 0
DWIDTH 18 0
BBX 14 27 3 0
BITMAP
000C
001C
0038
0038
0070
00F0
07F8
0F9C
1E1C
3C1C
7C3C
787C
7878
F030
F000
F000
F000
F000
F010
F030
78F0
7FE0
1F80
1800
3800
3800
3000
ENDCHAR
STARTCHAR sterling
ENCODING 163
SWIDTH 665 0
DWIDTH 24 0
BBX 25 27 -1 0
BITMAP
00003E00
00007F00
0001F380
0001E380
0003C180
00078380
00078380
000F8780
000F0F80
001F1F00
001E3F00
001E3E00
003E1C00
003C0000
01FFC000
03FFE000
02780000
00F80000
00F00000
00F00000
1FE00000
7FE00000
63F80400
E3FE0C00
E7BFFC00
7F0FFC00
3C03F000
ENDCHAR
STARTCHAR currency
ENCODING 164
SWIDTH 572 0
DWIDTH 21 0
BBX 20 23 2 1
BITMAP
010000
038020
0380F0
0381E0
03FFC0
03FF80
03CF00
078700
0F0700
1E0780
1E0F00
3C0F00
3C0F00
3C1F00
3C1E00
3C3E00
3C3C00
1CF800
3FF800
77D800
E01C00
C00C00
000800
ENDCHAR
STARTCHAR yen
ENCODING 165
SWIDTH 583 0
DWIDTH 21 0
BBX 24 27 2 0
BITMAP
38000E
7C003F
FE007E
1F00FC
0F01F8
0F01F0
0783E0
0787C0
038780
038F00
018E00
01DE00
01FC00
01F800
01F800
00F100
1FFE00
3FF800
01E000
01C000
3FFC00
7FFC00
0FC000
038000
078000
078000
070000
ENDCHAR
STARTCHAR brokenbar
ENCODING 166
SWIDTH 292 0
DWIDTH 11 0
BBX 3 38 4 -6
BITMAP
60
E0
E0
E0
E0
E0
E0
E0
E0
E0
E0
E0
E0
E0
E0
E0
C0
00
00
00
00
60
E0
E0
E0
E0
E0
E0
E0
E0
E0
E0
E0
E0
E0
E0
E0
C0
ENDCHAR
STARTCHAR section
ENCODING 167
SWIDTH 583 0
DWIDTH 21 0
BBX 22 37 0 -8
BITMAP
0007C0
001FF0
003C38
007838
00781C
00F83C
00F03C
00F078
00F8F8
00F9F0
0078E0
007C00
00FC00
03FE00
079E00
0F1F00
0F0F00
0E0F80
1E0780
1E0780
1F03C0
0F03C0
0F83C0
0F8380
07C780
07FF00
03FC00
01F000
01F000
00F000
70F000
F07000
F07000
F0E000
F8E000
7FC000
1F0000
ENDCHAR
STARTCHAR dieresis
ENCODING 168
SWIDTH 412 0
DWIDTH 15 0
BBX 14 5 1 22
BITMAP
7838
7C7C
FC7C
787C
7878
ENDCHAR
STARTCHAR copyright
ENCODING 169
SWIDTH 871 0
DWIDTH 31 0
BBX 27 27 3 0
BITMAP
000FE000
007FFC00
01FFFE00
03F01F00
0787C780
0F1FE3C0
1E3E71C0
3C7831E0
387870E0
70F070E0
71E0F0E0
F1E3E0E0
E1E3C0E0
E1C180E0
E1C000E0
E1C001C0
E1C001C0
E1C083C0
E1E1C380
F0FF8780
703E0F00
78001E00
3C007C00
1F01F800
0FFFF000
07FFC000
00FE0000
ENDCHAR
STARTCHAR ordfeminine
ENCODING 170
SWIDTH 564 0
DWIDTH 20 0
BBX 16 16 4 10
BITMAP
01E7
07FF
0F3F
1E1E
3C1E
383C
783C
7038
F078
F078
F0F0
F1F0
F3F0
FF7E
7E7E
3C3C
ENDCHAR
STARTCHAR guillemotleft
ENCODING 171
SWIDTH 662 0
DWIDTH 24 0
BBX 20 14 2 4
BITMAP
002010
00E070
03C1E0
0783C0
1F0F80
7C3E00
783C00
F87C00
7C3E00
3C1E00
1E0F00
0F0780
0783C0
0381C0
ENDCHAR
STARTCHAR logicalnot
ENCODING 172
SWIDTH 729 0
DWIDTH 26 0
BBX 20 12 3 2
BITMAP
7FFFF0
FFFFF0
FFFFF0
000070
000070
000070
000070
000070
000070
000070
0000F0
000060
ENDCHAR
STARTCHAR uni00AD
ENCODING 173
SWIDTH 833 0
DWIDTH 30 0
BBX 1 1 0 0
BITMAP
00
ENDCHAR
STARTCHAR registered
ENCODING 174
SWIDTH 742 0
DWIDTH 27 0
BBX 23 23 3 4
BITMAP
003F80
01FFE0
03C0F0
070038
0E3C1C
1CFF1C
39E78C
30A38E
70638E
60E38E
60E70E
E0FE0E
E1F80C
E1D80C
E1DC1C
E38E18
630F38
720270
3800E0
3C01C0
1F1F80
0FFF00
01F800
ENDCHAR
STARTCHAR macron
ENCODING 175
SWIDTH 392 0
DWIDTH 14 0
BBX 13 3 2 21
BITMAP
3FF8
7FF8
FFF0
ENDCHAR
STARTCHAR degree
ENCODING 176
SWIDTH 405 0
DWIDTH 15 0
BBX 12 11 4 16
BITMAP
0FC0
1FE0
3CE0
70F0
F0F0
F0E0
E0E0
E1E0
F3C0
7F80
3E00
ENDCHAR
STARTCHAR plusminus
ENCODING 177
SWIDTH 617 0
DWIDTH 22 0
BBX 18 23 2 0
BITMAP
004000
00E000
00E000
00E000
00E000
00E000
00E000
7FFFC0
FFFFC0
00E000
00E000
00E000
00E000
00E000
00E000
00E000
00C000
00C000
000000
000000
000000
7FFFC0
FFFFC0
ENDCHAR
STARTCHAR twosuperior
ENCODING 178
SWIDTH 458 0
DWIDTH 16 0
BBX 14 19 3 8
BITMAP
03F0
07F8
0E3C
1E1C
1C1C
1C3C
1E3C
0E78
00F8
01F0
03E0
07C0
0F00
1E00
3C00
7030
FFF0
FFE0
E3C0
ENDCHAR
STARTCHAR threesuperior
ENCODING 179
SWIDTH 430 0
DWIDTH 16 0
BBX 14 19 3 8
BITMAP
01F0
07F8
0E3C
0E3C
1C3C
1E3C
0E3C
0078
01F0
07E0
0FC0
01E0
00E0
70E0
E1E0
E1E0
E3C0
7F80
3E00
ENDCHAR
STARTCHAR acute
ENCODING 180
SWIDTH 322 0
DWIDTH 12 0
BBX 8 9 3 20
BITMAP
04
07
0F
0F
1F
1E
3C
78
E0
ENDCHAR
STARTCHAR mu
ENCODING 181
SWIDTH 618 0
DWIDTH 22 0
BBX 22 28 -1 -10
BITMAP
00601C
00F03C
01E03C
01E078
03C078
03C0F0
0781F0
0781E0
0F03E0
0F03E0
1F07C0
1E0FC0
1E0FC0
3E1BC0
3E73C8
3FE3F8
7FC3F0
7781E0
700000
700000
F00000
F00000
F00000
E00000
E00000
E00000
E00000
E00000
ENDCHAR
STARTCHAR paragraph
ENCODING 182
SWIDTH 739 0
DWIDTH 27 0
BBX 30 31 1 -2
BITMAP
00007FFC
0007FFF8
001FFFF0
003FF1E0
00FFE1C0
01FFC3C0
01FFC3C0
03FFC3C0
03FF8380
03FF8780
03FF8780
03FF8700
03FF0700
01FF0F00
00FF0F00
007F0E00
001E1E00
001E1E00
001E1C00
003C3C00
003C3800
003C3800
00787800
3C787000
7C707000
F8F0E000
F0E0E000
F1E0E000
F3C1C000
7F818000
3E030000
ENDCHAR
STARTCHAR periodcentered
ENCODING 183
SWIDTH 353 0
DWIDTH 13 0
BBX 6 5 4 10
BITMAP
78
7C
FC
FC
78
ENDCHAR
STARTCHAR cedilla
ENCODING 184
SWIDTH 301 0
DWIDTH 11 0
BBX 6 9 3 -8
BITMAP
30
38
18
18
3C
38
F8
F0
E0
ENDCHAR
STARTCHAR onesuperior
ENCODING 185
SWIDTH 403 0
DWIDTH 15 0
BBX 10 19 4 8
BITMAP
01C0
03C0
07C0
1FC0
3FC0
FBC0
0380
0780
0780
0F00
0F00
0E00
1E00
1C00
3C00
3800
7000
6000
4000
ENDCHAR
STARTCHAR ordmasculine
ENCODING 186
SWIDTH 498 0
DWIDTH 18 0
BBX 14 16 4 10
BITMAP
01E0
07F8
0F38
1E3C
3C3C
783C
783C
F03C
F038
F078
E078
E0F0
E1E0
F3C0
7F80
3E00
ENDCHAR
STARTCHAR guillemotright
ENCODING 187
SWIDTH 665 0
DWIDTH 24 0
BBX 20 14 2 4
BITMAP
381C00
3C1E00
1E0F00
0F0780
0783C0
03C1E0
03E1F0
03E1F0
07C3E0
0F0780
3E1F00
783C00
E07000
C06000
ENDCHAR
STARTCHAR onequarter
ENCODING 188
SWIDTH 988 0
DWIDTH 36 0
BBX 29 29 4 0
BITMAP
00001C00
00003C00
03803800
07C07800
0FC07000
1FC0E000
7F81E000
F781C000
C783C000
07038000
0F078C00
0E070E00
1E0E1E00
1C1E1E00
3C1C1E00
383C3C60
78383C70
70787870
E07078F0
C0E0F0E0
01E0E1E0
01C0FFF0
03C07FF8
038003C0
07000380
07000700
0E000700
1E000E00
1C000C00
ENDCHAR
STARTCHAR onehalf
ENCODING 189
SWIDTH 988 0
DWIDTH 36 0
BBX 29 29 4 0
BITMAP
00001C00
00003C00
03803800
07C07800
0FC07000
1FC0E000
3F81E000
FF81C000
E783C000
07038000
0F078000
0E0707E0
1E0E0FF0
1C1E1E78
1C1C3C38
383C3C38
78383C38
70781C78
E07000F8
C0E001F0
01E003E0
01C007C0
03C00F00
03803E00
07007800
0700F060
0E01FFE0
1E01FFC0
1C00FFC0
ENDCHAR
STARTCHAR threequarters
ENCODING 190
SWIDTH 1007 0
DWIDTH 36 0
BBX 32 29 1 0
BITMAP
000000E0
000001E0
01F001C0
03FC0380
071C0780
0E1E0700
0E1E0F00
0F1E0E00
0E3C1C00
007C3C00
01F83840
03E078E0
07E070F0
00E0F0E0
00F0E0E0
70F1C1E2
F0F3C1C7
F1E383C7
73C78387
7F87078F
1C0F070E
000E0E0E
001C07FF
003C03FF
00380038
00780038
00700070
00E00060
00E000C0
ENDCHAR
STARTCHAR questiondown
ENCODING 191
SWIDTH 516 0
DWIDTH 19 0
BBX 17 27 0 -7
BITMAP
000F00
001F80
001F80
001F80
000F00
000000
000000
000C00
001C00
003C00
007800
00F800
01F000
03E000
0FC000
1F8000
3F0000
7E0000
787000
F0F000
F0F800
E07800
E07000
E0F000
71E000
3FC000
1F0000
ENDCHAR
STARTCHAR Agrave
ENCODING 192
SWIDTH 615 0
DWIDTH 22 0
BBX 26 35 -3 0
BITMAP
00000C00
00001C00
00001E00
00001E00
00000F00
00000780
00000080
00000000
000003C0
00000FC0
00003FC0
00007BC0
0000E380
0001C780
00038780
00078F00
00070F00
000E0F00
001C1E00
001C1E00
00381C00
007FFF80
00FFFF80
03FFFF00
07E07800
01C07800
03C07800
03807000
0780F000
0700F000
0F00F000
1E00F200
3C00FF00
F8007E00
F0003C00
ENDCHAR
STARTCHAR Aacute
ENCODING 193
SWIDTH 615 0
DWIDTH 22 0
BBX 28 35 -3 0
BITMAP
00000070
00000070
000000F0
000000F0
000001E0
000003C0
00000200
00000000
000003C0
00000FC0
00003FC0
00007BC0
0000E380
0001C780
00038780
00078F00
00070F00
000E0F00
001C1E00
001C1E00
00381C00
007FFF80
00FFFF80
03FFFF00
07E07800
01C07800
03C07800
03807000
0780F000
0700F000
0F00F000
1E00F200
3C00FF00
F8007E00
F0003C00
ENDCHAR
STARTCHAR Acircumflex
ENCODING 194
SWIDTH 615 0
DWIDTH 22 0
BBX 29 35 -3 0
BITMAP
000000C0
000001C0
000003E0
00000FE0
00003EF0
00007878
00002010
00000000
000003C0
00000FC0
00003FC0
00007BC0
0000E380
0001C780
00038780
00078F00
00070F00
000E0F00
001C1E00
001C1E00
00381C00
007FFF80
00FFFF80
03FFFF00
07E07800
01C07800
03C07800
03807000
0780F000
0700F000
0F00F000
1E00F200
3C00FF00
F8007E00
F0003C00
ENDCHAR
STARTCHAR Atilde
ENCODING 195
SWIDTH 615 0
DWIDTH 22 0
BBX 30 35 -3 0
BITMAP
00000E04
00003F0C
00003F9C
000067F8
000063F0
000041E0
00000000
00000000
000003C0
00000FC0
00003FC0
00007BC0
0000E380
0001C780
00038780
00078F00
00070F00
000E0F00
001C1E00
001C1E00
00381C00
007FFF80
00FFFF80
03FFFF00
07E07800
01C07800
03C07800
03807000
0780F000
0700F000
0F00F000
1E00F200
3C00FF00
F8007E00
F0003C00
ENDCHAR
STARTCHAR Adieresis
ENCODING 196
SWIDTH 615 0
DWIDTH 22 0
BBX 30 34 -3 0
BITMAP
00003838
00007C7C
00007C7C
00007C7C
00007838
00000000
00000000
000003C0
00000FC0
00003FC0
00007BC0
0000E380
0001C780
00038780
00078F00
00070F00
000E0F00
001C1E00
001C1E00
00381C00
007FFF80
00FFFF80
03FFFF00
07E07800
01C07800
03C07800
03807000
0780F000
0700F000
0F00F000
1E00F200
3C00FF00
F8007E00
F0003C00
ENDCHAR
STARTCHAR Aring
ENCODING 197
SWIDTH 615 0
DWIDTH 22 0
BBX 28 35 -3 0
BITMAP
000003E0
000007F0
00000E70
00001C70
00001C70
00001C70
00001C70
00001CE0
00000FC0
00000FC0
00003DC0
000073C0
0000E380
0001C780
00038780
00070F00
00070F00
000E0F00
001C1E00
001C1E00
00381C00
007FFF80
00FFFF80
03FFFF00
07E07800
01C07800
03C07800
03807000
0780F000
0700F000
0F00F000
1E00F200
3C00FF00
F8007E00
F0003C00
ENDCHAR
STARTCHAR AE
ENCODING 198
SWIDTH 878 0
DWIDTH 32 0
BBX 37 27 -3 0
BITMAP
000007CFE0
00001FFFF0
00003FFC38
000079F818
0000F1E038
0001E3C038
0003C7C078
00078781F0
00070783F0
000F0F03E0
001E0F01C0
001C070000
003C078000
007BFFF800
00FFFFFC00
03FFFFF000
03E00FC000
01C01F8000
03C01F0000
03803E0000
07803C0100
0F003C0300
0F003C0700
1E003C1F00
3C003FFE00
F8001FF800
700007E000
ENDCHAR
STARTCHAR Ccedilla
ENCODING 199
SWIDTH 533 0
DWIDTH 19 0
BBX 20 35 2 -8
BITMAP
000F80
003FE0
00F860
01F070
03C070
07C0F0
0F80F0
0F01F0
1E03E0
3E07E0
3C0FC0
7C0780
780000
780000
F80000
F00000
F00000
F00000
F00000
F00000
F00000
F00000
F00400
781C00
7C3C00
3FF800
0FE000
060000
060000
070000
0F0000
0E0000
3E0000
3E0000
380000
ENDCHAR
STARTCHAR Egrave
ENCODING 200
SWIDTH 509 0
DWIDTH 18 0
BBX 20 35 1 0
BITMAP
000C00
001C00
001E00
001E00
000F00
000780
000080
000000
001F80
007FE0
01F870
03E070
07C070
0780F0
0F01F0
0F03E0
1E07C0
1E0F80
1E0700
1E0000
0E0000
0F7000
07F800
07F000
1F8000
3F0000
3E0000
7C0000
780000
F80400
F80E00
781C00
787C00
3FF000
0FC000
ENDCHAR
STARTCHAR Eacute
ENCODING 201
SWIDTH 509 0
DWIDTH 18 0
BBX 20 35 1 0
BITMAP
000070
000070
0000F0
0000F0
0001E0
0003C0
000200
000000
001F80
007FE0
01F870
03E070
07C070
0780F0
0F01F0
0F03E0
1E07C0
1E0F80
1E0700
1E0000
0E0000
0F7000
07F800
07F000
1F8000
3F0000
3E0000
7C0000
780000
F80400
F80E00
781C00
787C00
3FF000
0FC000
ENDCHAR
STARTCHAR Ecircumflex
ENCODING 202
SWIDTH 509 0
DWIDTH 18 0
BBX 21 35 1 0
BITMAP
0000C0
0001C0
0003E0
000FE0
003EF0
007878
002010
000000
001F80
007FE0
01F870
03E070
07C070
0780F0
0F01F0
0F03E0
1E07C0
1E0F80
1E0700
1E0000
0E0000
0F7000
07F800
07F000
1F8000
3F0000
3E0000
7C0000
780000
F80400
F80E00
781C00
787C00
3FF000
0FC000
ENDCHAR
STARTCHAR Edieresis
ENCODING 203
SWIDTH 509 0
DWIDTH 18 0
BBX 22 34 1 0
BITMAP
003838
007C7C
007C7C
007C7C
003838
000000
000000
001F80
007FE0
01F870
03E070
07C070
0780F0
0F01F0
0F03E0
1E07C0
1E0F80
1E0700
1E0000
0E0000
0F7000
07F800
07F000
1F8000
3F0000
3E0000
7C0000
780000
F80400
F80E00
781C00
787C00
3FF000
0FC000
ENDCHAR
STARTCHAR Igrave
ENCODING 204
SWIDTH 327 0
DWIDTH 12 0
BBX 13 35 0 0
BITMAP
00C0
01E0
01E0
01F0
00F0
0078
0008
0000
07E0
0FF0
0E78
0070
00F0
00F0
00F0
00F0
01F0
01E0
01E0
01E0
03C0
03C0
03C0
0780
0780
0780
0F00
0F00
1E00
1E00
3C00
3800
7800
F000
E000
ENDCHAR
STARTCHAR Iacute
ENCODING 205
SWIDTH 327 0
DWIDTH 12 0
BBX 17 35 0 0
BITMAP
000700
000780
000780
000F00
001E00
003C00
002000
000000
07E000
0FF000
0E7800
007000
00F000
00F000
00F000
00F000
01F000
01E000
01E000
01E000
03C000
03C000
03C000
078000
078000
078000
0F0000
0F0000
1E0000
1E0000
3C0000
380000
780000
F00000
E00000
ENDCHAR
STARTCHAR Icircumflex
ENCODING 206
SWIDTH 327 0
DWIDTH 12 0
BBX 17 35 0 0
BITMAP
000C00
001E00
003E00
00FE00
03EF00
078780
020100
000000
07E000
0FF000
0E7800
007000
00F000
00F000
00F000
00F000
01F000
01E000
01E000
01E000
03C000
03C000
03C000
078000
078000
078000
0F0000
0F0000
1E0000
1E0000
3C0000
380000
780000
F00000
E00000
ENDCHAR
STARTCHAR Idieresis
ENCODING 207
SWIDTH 327 0
DWIDTH 12 0
BBX 18 34 0 0
BITMAP
0383C0
07C7C0
07C7C0
07C7C0
038380
000000
000000
07E000
0FF000
0E7800
007000
00F000
00F000
00F000
00F000
01F000
01E000
01E000
01E000
03C000
03C000
03C000
078000
078000
078000
0F0000
0F0000
1E0000
1E0000
3C0000
380000
780000
F00000
E00000
ENDCHAR
STARTCHAR Eth
ENCODING 208
SWIDTH 630 0
DWIDTH 23 0
BBX 22 27 1 0
BITMAP
01FE00
0FFFC0
3FFFE0
3F01F0
1C0078
000078
01E03C
03E03C
03C03C
07C03C
07803C
7FFC3C
FFF83C
FFF878
1E0078
1E00F0
3C00F0
3C01E0
3C03E0
7803C0
780780
781F00
703E00
F07C00
71F000
7FE000
1F0000
ENDCHAR
STARTCHAR Ntilde
ENCODING 209
SWIDTH 708 0
DWIDTH 25 0
BBX 28 34 1 0
BITMAP
00007830
0000FE70
0001FFE0
00039FC0
00030F80
00000000
00000000
001C0380
003C07C0
007C03E0
00FC03E0
01FC03E0
03BC01E0
03BC03E0
073C03C0
073C03C0
0E3C0380
0E3C0780
1C3C0780
1C3C0700
1C3C0E00
383C0E00
381E1C00
781E1C00
701E3800
701E3800
701F7000
F00F7000
E00F6000
E007E000
E007C000
E003C000
E003C000
E001C000
ENDCHAR
STARTCHAR Ograve
ENCODING 210
SWIDTH 655 0
DWIDTH 24 0
BBX 22 35 2 0
BITMAP
000300
000780
000780
0007C0
0003C0
0001F0
000020
000000
000FC0
003FF0
007878
01F038
03E03C
07C03C
07803C
0F003C
1F003C
1E003C
3E003C
3C003C
7C0078
780078
7800F8
7800F0
F000F0
F001E0
F003E0
F003C0
F007C0
F00F80
701F00
703E00
387C00
1FF000
0FC000
ENDCHAR
STARTCHAR Oacute
ENCODING 211
SWIDTH 655 0
DWIDTH 24 0
BBX 23 35 2 0
BITMAP
00000C
00001E
00001E
00003C
000078
0000F0
000080
000000
000FC0
003FF0
007878
01F038
03E03C
07C03C
07803C
0F003C
1F003C
1E003C
3E003C
3C003C
7C0078
780078
7800F8
7800F0
F000F0
F001E0
F003E0
F003C0
F007C0
F00F80
701F00
703E00
387C00
1FF000
0FC000
ENDCHAR
STARTCHAR Ocircumflex
ENCODING 212
SWIDTH 655 0
DWIDTH 24 0
BBX 23 35 2 0
BITMAP
000030
000078
0000F8
0003FC
0007BC
001E1E
000804
000000
000FC0
003FF0
007878
01F038
03E03C
07C03C
07803C
0F003C
1F003C
1E003C
3E003C
3C003C
7C0078
780078
7800F8
7800F0
F000F0
F001E0
F003E0
F003C0
F007C0
F00F80
701F00
703E00
387C00
1FF000
0FC000
ENDCHAR
STARTCHAR Otilde
ENCODING 213
SWIDTH 655 0
DWIDTH 24 0
BBX 25 35 2 0
BITMAP
0003C180
0007E100
000FE300
001CFF00
00187E00
00103800
00000000
00000000
000FC000
003FF000
00787800
01F03800
03E03C00
07C03C00
07803C00
0F003C00
1F003C00
1E003C00
3E003C00
3C003C00
7C007800
78007800
7800F800
7800F000
F000F000
F001E000
F003E000
F003C000
F007C000
F00F8000
701F0000
703E0000
387C0000
1FF00000
0FC00000
ENDCHAR
STARTCHAR Odieresis
ENCODING 214
SWIDTH 655 0
DWIDTH 24 0
BBX 24 34 2 0
BITMAP
000F0F
001F1F
001F1F
001F1F
000E0E
000000
000000
000FC0
003FF0
007878
01F038
03E03C
07C03C
07803C
0F003C
1F003C
1E003C
3E003C
3C003C
7C0078
780078
7800F8
7800F0
F000F0
F001E0
F003E0
F003C0
F007C0
F00F80
701F00
703E00
387C00
1FF000
0FC000
ENDCHAR
STARTCHAR multiply
ENCODING 215
SWIDTH 573 0
DWIDTH 21 0
BBX 15 14 4 5
BITMAP
C00E
E01C
7038
3870
1CE0
0FC0
0780
0780
0FC0
1CE0
3870
7038
E01C
C00C
ENDCHAR
STARTCHAR Oslash
ENCODING 216
SWIDTH 655 0
DWIDTH 24 0
BBX 23 33 3 -3
BITMAP
00000E
00001E
00003C
000FF8
003FF0
007CF8
01F1FC
03E1BC
03C39C
07831C
0F873C
1F0E3C
1E0C3C
3E1C3C
3C183C
3C307C
7C3078
786078
78E0F8
78C0F0
F181F0
F181E0
F303C0
F707C0
F60F80
7E0F00
7C3E00
3C7C00
3FF000
7FC000
700000
E00000
600000
ENDCHAR
STARTCHAR Ugrave
ENCODING 217
SWIDTH 624 0
DWIDTH 22 0
BBX 24 35 1 0
BITMAP
000600
000F00
000F00
000F80
000780
0003E0
000040
000000
03C006
03E00F
01E00F
01E01E
01E01E
03C03C
03C07C
07C078
0780F8
0780F8
0F01F0
0F01F0
1E03F0
1E03E0
3C07E0
3C07E0
380FC0
781FC0
781BC0
F03BC0
F07380
F06780
F0C780
F38788
FF03F8
FE03F0
7C01E0
ENDCHAR
STARTCHAR Uacute
ENCODING 218
SWIDTH 624 0
DWIDTH 22 0
BBX 24 35 1 0
BITMAP
000038
00003C
00003C
000078
0000F0
0001E0
000100
000000
03C006
03E00F
01E00F
01E01E
01E01E
03C03C
03C07C
07C078
0780F8
0780F8
0F01F0
0F01F0
1E03F0
1E03E0
3C07E0
3C07E0
380FC0
781FC0
781BC0
F03BC0
F07380
F06780
F0C780
F38788
FF03F8
FE03F0
7C01E0
ENDCHAR
STARTCHAR Ucircumflex
ENCODING 219
SWIDTH 624 0
DWIDTH 22 0
BBX 24 35 1 0
BITMAP
000060
0000F0
0001F0
0007F8
001F78
003C3C
001008
000000
03C006
03E00F
01E00F
01E01E
01E01E
03C03C
03C07C
07C078
0780F8
0780F8
0F01F0
0F01F0
1E03F0
1E03E0
3C07E0
3C07E0
380FC0
781FC0
781BC0
F03BC0
F07380
F06780
F0C780
F38788
FF03F8
FE03F0
7C01E0
ENDCHAR
STARTCHAR Udieresis
ENCODING 220
SWIDTH 624 0
DWIDTH 22 0
BBX 24 34 1 0
BITMAP
001E1E
003E3E
003E3E
003E3E
001C1C
000000
000000
03C006
03E00F
01E00F
01E01E
01E01E
03C03C
03C07C
07C078
0780F8
0780F8
0F01F0
0F01F0
1E03F0
1E03E0
3C07E0
3C07E0
380FC0
781FC0
781BC0
F03BC0
F07380
F06780
F0C780
F38788
FF03F8
FE03F0
7C01E0
ENDCHAR
STARTCHAR Yacute
ENCODING 221
SWIDTH 580 0
DWIDTH 21 0
BBX 24 44 1 -10
BITMAP
000038
000038
000078
0000F0
0001E0
0001C0
000000
03C006
07E00F
03E01F
01E01E
01E03E
03C03C
03C07C
078078
0780F8
0F80F8
0F01F0
0F01F0
1E03F0
1E03E0
3C07E0
3C07C0
780FC0
781FC0
781B80
F03F80
F07780
F0E700
F0CF00
F38E00
FF1E00
FE1C00
783C00
003800
007800
00F000
01E000
01E000
03C000
078000
1F0000
7C0000
780000
ENDCHAR
STARTCHAR Thorn
ENCODING 222
SWIDTH 527 0
DWIDTH 19 0
BBX 21 27 -2 0
BITMAP
03F000
0FF800
077800
007800
007800
007800
007800
00FF80
00FFE0
00F0F0
00F078
01E038
01E038
01E078
03C078
03C0F8
03C1F0
0787E0
07FFC0
0FFF00
0F6000
1E0000
1E0000
3C0000
780000
F00000
600000
ENDCHAR
STARTCHAR germandbls
ENCODING 223
SWIDTH 520 0
DWIDTH 19 0
BBX 21 34 -2 -5
BITMAP
0007E0
000FF0
001E38
003C38
007838
007038
00F038
00F078
01E078
01E0F0
01E1E0
03C3C0
03C780
03C700
038F00
078E00
078E00
078F00
070F00
0F0F80
0F07C0
0F03C0
0E03E0
1E21E0
1E70E0
1EF0E0
3C79E0
3C7FC0
3C3F00
780000
780000
700000
F00000
400000
ENDCHAR
STARTCHAR agrave
ENCODING 224
SWIDTH 541 0
DWIDTH 20 0
BBX 18 28 1 0
BITMAP
003800
007800
007800
007800
003800
003800
001C00
001C00
000400
000000
00F9C0
03FFC0
078FC0
0F0780
1E0780
3C0F00
3C0F00
780F00
781E00
781E00
F03C00
F07C00
F07C00
F0FC00
F1FE80
7F9F80
7F1F80
3E0E00
ENDCHAR
STARTCHAR aacute
ENCODING 225
SWIDTH 541 0
DWIDTH 20 0
BBX 18 28 1 0
BITMAP
000700
000700
000780
000F00
000F00
001E00
003C00
007000
004000
000000
00F9C0
03FFC0
078FC0
0F0780
1E0780
3C0F00
3C0F00
780F00
781E00
781E00
F03C00
F07C00
F07C00
F0FC00
F1FE80
7F9F80
7F1F80
3E0E00
ENDCHAR
STARTCHAR acircumflex
ENCODING 226
SWIDTH 541 0
DWIDTH 20 0
BBX 18 28 1 0
BITMAP
000200
000700
000F80
001F80
003B80
00F380
03E3C0
0381C0
000000
000000
00F9C0
03FFC0
078FC0
0F0780
1E0780
3C0F00
3C0F00
780F00
781E00
781E00
F03C00
F07C00
F07C00
F0FC00
F1FE80
7F9F80
7F1F80
3E0E00
ENDCHAR
STARTCHAR atilde
ENCODING 227
SWIDTH 541 0
DWIDTH 20 0
BBX 20 27 1 0
BITMAP
007830
00FC30
01FE60
039FE0
030FC0
030700
000000
000000
000000
00F9C0
03FFC0
078FC0
0F0780
1E0780
3C0F00
3C0F00
780F00
781E00
781E00
F03C00
F07C00
F07C00
F0FC00
F1FE80
7F9F80
7F1F80
3E0E00
ENDCHAR
STARTCHAR adieresis
ENCODING 228
SWIDTH 541 0
DWIDTH 20 0
BBX 20 27 1 0
BITMAP
01E1E0
03E3F0
03F3F0
03E3E0
01C1C0
000000
000000
000000
000000
00F9C0
03FFC0
078FC0
0F0780
1E0780
3C0F00
3C0F00
780F00
781E00
781E00
F03C00
F07C00
F07C00
F0FC00
F1FE80
7F9F80
7F1F80
3E0E00
ENDCHAR
STARTCHAR aring
ENCODING 229
SWIDTH 541 0
DWIDTH 20 0
BBX 18 28 1 0
BITMAP
001F00
003F80
0071C0
00E1C0
00E3C0
00E380
00FF00
003E00
000000
000000
00F9C0
03FFC0
078FC0
0F0780
1E0780
3C0F00
3C0F00
780F00
781E00
781E00
F03C00
F07C00
F07C00
F0FC00
F1FE80
7F9F80
7F1F80
3E0E00
ENDCHAR
STARTCHAR ae
ENCODING 230
SWIDTH 769 0
DWIDTH 28 0
BBX 26 18 1 0
BITMAP
00F9DF00
03FFFF80
078FE3C0
0F07C3C0
1E0783C0
3C0F83C0
3C0F07C0
780F0F80
781F1F80
781E3E00
F03FFC00
F03FE000
F07E0000
F0FE0000
F0DE0300
798F0F00
7F07FE00
3E03F800
ENDCHAR
STARTCHAR ccedilla
ENCODING 231
SWIDTH 465 0
DWIDTH 17 0
BBX 15 26 1 -8
BITMAP
00F8
03FE
078E
0F0E
1E0E
3C1E
3C1E
783C
783C
F800
F000
F000
F000
F008
F018
7870
3FE0
1F80
0600
0600
0700
0F00
0E00
3E00
3C00
3800
ENDCHAR
STARTCHAR egrave
ENCODING 232
SWIDTH 471 0
DWIDTH 17 0
BBX 15 28 1 0
BITMAP
0070
00F0
00F0
00F0
00F0
0070
0070
0038
0010
0000
00F8
01FE
078E
0F0E
1E0E
1E1E
3C1E
7C3E
787C
79F8
7FE0
FF00
F000
7008
7818
7878
3FF0
0FC0
ENDCHAR
STARTCHAR eacute
ENCODING 233
SWIDTH 471 0
DWIDTH 17 0
BBX 15 28 1 0
BITMAP
000C
000E
001E
001E
003C
0078
0070
01E0
0080
0000
00F8
01FE
078E
0F0E
1E0E
1E1E
3C1E
7C3E
787C
79F8
7FE0
FF00
F000
7008
7818
7878
3FF0
0FC0
ENDCHAR
STARTCHAR ecircumflex
ENCODING 234
SWIDTH 471 0
DWIDTH 17 0
BBX 17 28 1 0
BITMAP
000400
000E00
001E00
003F00
00FF00
01E700
0F8780
070380
000000
000000
00F800
01FE00
078E00
0F0E00
1E0E00
1E1E00
3C1E00
7C3E00
787C00
79F800
7FE000
FF0000
F00000
700800
781800
787800
3FF000
0FC000
ENDCHAR
STARTCHAR edieresis
ENCODING 235
SWIDTH 471 0
DWIDTH 17 0
BBX 18 27 1 0
BITMAP
038380
07C7C0
07C7C0
07C7C0
038380
000000
000000
000000
000000
00F800
01FE00
078E00
0F0E00
1E0E00
1C1E00
3C1E00
7C7C00
78F800
7FE000
7F8000
F00000
F00000
780800
781800
7C7800
3FF000
0FC000
ENDCHAR
STARTCHAR igrave
ENCODING 236
SWIDTH 286 0
DWIDTH 10 0
BBX 9 28 1 0
BITMAP
0700
0F00
0F00
0F00
0F00
0700
0300
0380
0080
0000
0F00
1F00
0F00
0F00
0E00
1E00
1E00
1C00
3C00
3800
7800
7000
F000
F000
F000
FE00
FC00
7800
ENDCHAR
STARTCHAR iacute
ENCODING 237
SWIDTH 286 0
DWIDTH 10 0
BBX 12 28 1 0
BITMAP
00E0
00E0
00F0
01E0
03E0
03C0
0780
0E00
0800
0000
0F00
1F00
0F00
0F00
0E00
1E00
1E00
1C00
3C00
3800
7800
7000
F000
F000
F000
FE00
FC00
7800
ENDCHAR
STARTCHAR icircumflex
ENCODING 238
SWIDTH 286 0
DWIDTH 10 0
BBX 13 28 1 0
BITMAP
0040
00E0
01F0
03F0
0F70
1E70
7C78
7038
0000
0000
0F00
1F00
0F00
0F00
0E00
1E00
1E00
1C00
3C00
3800
7800
7000
F000
F000
F000
FE00
FC00
7800
ENDCHAR
STARTCHAR idieresis
ENCODING 239
SWIDTH 286 0
DWIDTH 10 0
BBX 15 27 1 0
BITMAP
3C3C
7C7E
7C7C
7C7C
3838
0000
0000
0000
0000
0F00
1F00
0F00
0F00
0E00
1E00
1E00
1C00
3C00
3800
7800
7000
F000
F000
F000
FE00
FC00
7800
ENDCHAR
STARTCHAR eth
ENCODING 240
SWIDTH 524 0
DWIDTH 19 0
BBX 22 30 1 0
BITMAP
000400
000600
000700
000300
0003F8
0003FC
000FF0
001FC0
0031C0
0041C0
0001C0
0001C0
00F9C0
03FFC0
078FC0
0F0780
1E0780
1E0780
3C0780
3C0F00
780F00
781E00
781E00
F03C00
F03C00
F07800
70F000
79E000
3FC000
1F0000
ENDCHAR
STARTCHAR ntilde
ENCODING 241
SWIDTH 561 0
DWIDTH 20 0
BBX 21 27 0 0
BITMAP
003C18
007E18
00FF30
01CFF0
0187E0
018380
000000
000000
000000
070380
0F8FC0
079FE0
07B9E0
0731E0
0F63C0
0FC3C0
0F8780
1F8780
1F0F80
1E0F00
3C0F00
3C1E00
781E00
781E40
F01FC0
F00FC0
600700
ENDCHAR
STARTCHAR ograve
ENCODING 242
SWIDTH 514 0
DWIDTH 19 0
BBX 16 28 1 0
BITMAP
0018
003C
0078
0038
0038
003C
001C
000C
0004
0000
00F8
03FE
078E
0F0F
1E0F
3E0F
3C0F
7C0F
780F
781F
F81E
F03E
F03C
F07C
70F8
79F0
3FE0
1F80
ENDCHAR
STARTCHAR oacute
ENCODING 243
SWIDTH 514 0
DWIDTH 19 0
BBX 17 28 1 0
BITMAP
000300
000780
000780
000F80
000F00
001E00
003C00
007800
004000
000000
00F800
03FE00
078E00
0F0F00
1E0F00
3E0F00
3C0F00
7C0F00
780F00
781F00
F81E00
F03E00
F03C00
F07C00
70F800
79F000
3FE000
1F8000
ENDCHAR
STARTCHAR ocircumflex
ENCODING 244
SWIDTH 514 0
DWIDTH 19 0
BBX 19 28 1 0
BITMAP
000100
000380
000780
001F80
003FC0
00F3C0
03E1C0
0180E0
000000
000000
00F800
03FE00
078E00
0F0F00
1E0F00
3E0F00
3C0F00
7C0F00
780F00
781F00
F81E00
F03E00
F03C00
F07C00
70F800
79F000
3FE000
1F8000
ENDCHAR
STARTCHAR otilde
ENCODING 245
SWIDTH 514 0
DWIDTH 19 0
BBX 20 27 1 0
BITMAP
003810
00FC30
01FE70
019FE0
030FC0
030780
000000
000000
000000
00F800
03FE00
078E00
0F0F00
1E0F00
3E0F00
3C0F00
7C0F00
780F00
781F00
F81E00
F03E00
F03C00
F07C00
70F800
79F000
3FE000
1F8000
ENDCHAR
STARTCHAR odieresis
ENCODING 246
SWIDTH 514 0
DWIDTH 19 0
BBX 20 27 1 0
BITMAP
00E0E0
01F1F0
03F1F0
01E1F0
01E1E0
000000
000000
000000
000000
00F800
03FE00
078E00
0F0F00
1E0F00
3E0F00
3C0F00
7C0F00
780F00
781F00
F81E00
F03E00
F03C00
F07C00
70F800
79F000
3FE000
1F8000
ENDCHAR
STARTCHAR divide
ENCODING 247
SWIDTH 617 0
DWIDTH 22 0
BBX 18 18 3 4
BITMAP
008000
01E000
03E000
01E000
01C000
000000
000000
000000
FFFFC0
FFFF80
000000
000000
000000
01C000
03E000
03E000
03C000
008000
ENDCHAR
STARTCHAR oslash
ENCODING 248
SWIDTH 514 0
DWIDTH 19 0
BBX 18 24 1 -3
BITMAP
0001C0
0003C0
000780
00FF00
03FE00
079E00
0F1F00
1E3700
3E2F00
3C6F00
7CCF00
788F00
799F00
F11E00
F31E00
F63C00
F67C00
7CF800
79F000
3FE000
3F8000
700000
700000
600000
ENDCHAR
STARTCHAR ugrave
ENCODING 249
SWIDTH 553 0
DWIDTH 20 0
BBX 19 28 1 0
BITMAP
001C00
003C00
003C00
003C00
001C00
001C00
000E00
000600
000200
000000
0E01C0
1F01E0
0F03C0
0F03C0
0F0780
1E0F80
1E0F00
3E1F00
3C1E00
3C3E00
787E00
78FC00
F0DC00
F19C00
F33C00
FE3F80
FC1F80
781E00
ENDCHAR
STARTCHAR uacute
ENCODING 250
SWIDTH 553 0
DWIDTH 20 0
BBX 19 28 1 0
BITMAP
000380
0003C0
0003C0
000780
000780
000F00
001E00
003800
002000
000000
0E01C0
1F01E0
0F03C0
0F03C0
0F0780
1E0F80
1E0F00
3E1F00
3C1E00
3C3E00
787E00
78FC00
F0DC00
F19C00
F33C00
FE3F80
FC1F80
781E00
ENDCHAR
STARTCHAR ucircumflex
ENCODING 251
SWIDTH 553 0
DWIDTH 20 0
BBX 19 28 1 0
BITMAP
000100
0003C0
0007C0
000FC0
001DC0
0079E0
01F0E0
01C0E0
000000
000000
0E01C0
1F01E0
0F03C0
0F03C0
0F0780
1E0F80
1E0F00
3E1F00
3C1E00
3C3E00
787E00
78FC00
F0DC00
F19C00
F33C00
FE3F80
FC1F80
781E00
ENDCHAR
STARTCHAR udieresis
ENCODING 252
SWIDTH 553 0
DWIDTH 20 0
BBX 21 27 1 0
BITMAP
00F0F0
01F9F8
01F9F8
01F1F0
00E0F0
000000
000000
000000
000000
0E01C0
1F01E0
0F03C0
0F03C0
0F0780
1E0F80
1E0F00
3E1F00
3C1E00
3C3E00
787E00
78FC00
F0DC00
F19C00
F33C00
FE3F80
FC1F80
781E00
ENDCHAR
STARTCHAR yacute
ENCODING 253
SWIDTH 549 0
DWIDTH 20 0
BBX 19 38 1 -10
BITMAP
000300
000780
000780
000F80
000F00
001E00
003C00
007000
004000
000000
0F00C0
1F01E0
0F03C0
0F03C0
0F07C0
0E0780
1E0F80
1E0F80
3C1F00
3C3F00
783F00
786E00
F0DE00
F1DE00
F39C00
FF3C00
FE3800
783800
007000
007000
00E000
01E000
01C000
038000
0F8000
1F0000
7C0000
380000
ENDCHAR
STARTCHAR thorn
ENCODING 254
SWIDTH 552 0
DWIDTH 20 0
BBX 22 39 -3 -10
BITMAP
000C00
000E00
001E00
001E00
001E00
001C00
001C00
003C00
003800
003800
007800
0071E0
0077F0
00FE78
00FC38
00F838
01F03C
01E07C
01E078
03C078
03C078
0380F0
0780F0
0781E0
0783C0
0F87C0
0FDF00
0EFE00
0E7800
1E0000
1C0000
3C0000
3C0000
380000
780000
700000
F00000
F00000
E00000
ENDCHAR
STARTCHAR ydieresis
ENCODING 255
SWIDTH 549 0
DWIDTH 20 0
BBX 20 37 1 -10
BITMAP
01E1E0
03F1F0
03F3F0
03E1E0
01E1E0
000000
000000
000000
000000
0F00C0
1F01E0
0F03C0
0F03C0
0F07C0
0E0780
1E0F80
1E0F80
3C1F00
3C3F00
783F00
786E00
F0DE00
F1DE00
F39C00
FF3C00
FE3800
783800
007000
007000
00E000
01E000
01C000
038000
0F8000
1F0000
7C0000
380000
ENDCHAR
STARTCHAR Amacron
ENCODING 256
SWIDTH 615 0
DWIDTH 22 0
BBX 29 33 -3 0
BITMAP
00003FF8
00007FF8
00007FF0
00000000
00000000
00000000
000003C0
00000FC0
00003FC0
00007BC0
0000E380
0001C780
00038780
00078F00
00070F00
000E0F00
001C1E00
001C1E00
00381C00
007FFF80
00FFFF80
03FFFF00
07E07800
01C07800
03C07800
03807000
0780F000
0700F000
0F00F000
1E00F200
3C00FF00
F8007E00
F0003C00
ENDCHAR
STARTCHAR amacron
ENCODING 257
SWIDTH 543 0
DWIDTH 20 0
BBX 19 24 1 0
BITMAP
01FFE0
03FFE0
03FFC0
000000
000000
000000
00F9C0
01FFE0
078FC0
0F0780
1E0780
1C0F00
3C0F00
780F00
781E00
781E00
F03C00
F07C00
F07C00
F0FC00
F1FE80
7F9F80
7F1F80
3E0E00
ENDCHAR
STARTCHAR Abreve
ENCODING 258
SWIDTH 615 0
DWIDTH 22 0
BBX 30 35 -3 0
BITMAP
00000C0C
00001C1C
00001E38
00001FF0
00001FE0
00000780
00000000
00000000
000003C0
00000FC0
00003FC0
00007BC0
0000E380
0001C780
00038780
00078F00
00070F00
000E0F00
001C1E00
001C1E00
00381C00
007FFF80
00FFFF80
03FFFF00
07E07800
01C07800
03C07800
03807000
0780F000
0700F000
0F00F000
1E00F200
3C00FF00
F8007E00
F0003C00
ENDCHAR
STARTCHAR abreve
ENCODING 259
SWIDTH 543 0
DWIDTH 20 0
BBX 19 27 1 0
BITMAP
006020
00E060
00E0E0
00F1C0
00FF80
007F00
003C00
000000
000000
00F9C0
01FFE0
078FC0
0F0780
1E0780
1C0F00
3C0F00
780F00
781E00
781E00
F03C00
F07C00
F07C00
F0FC00
F1FE80
7F9F80
7F1F80
3E0E00
ENDCHAR
STARTCHAR Aogonek
ENCODING 260
SWIDTH 615 0
DWIDTH 22 0
BBX 26 36 -3 -9
BITMAP
000003C0
00000FC0
00003FC0
00007BC0
0000E380
0001C780
00038780
00078F00
00070F00
000E0F00
001C1E00
001C1E00
00381C00
007FFF80
01FFFF80
03FFFF00
06E07800
01C07800
03C07800
03807000
0780F000
0700F000
0F00F000
1E00F200
3C00FF00
F8007E00
F0003C00
00007000
0000E000
0001C000
0001C000
0003C000
0003D000
0003F000
0003F000
0001C000
ENDCHAR
STARTCHAR aogonek
ENCODING 261
SWIDTH 541 0
DWIDTH 20 0
BBX 18 27 1 -9
BITMAP
00F9C0
03FFC0
078FC0
0F0780
1E0780
3C0F00
3C0F00
780F00
781E00
781E00
F03C00
F07C00
F07C00
F0FC00
F1FE80
7F9F80
7F1F80
3E0E00
000C00
001800
003800
007000
007000
00F200
00FE00
00FC00
007800
ENDCHAR
STARTCHAR Cacute
ENCODING 262
SWIDTH 533 0
DWIDTH 19 0
BBX 22 35 2 0
BITMAP
000018
00001C
00003C
00003C
000078
0001E0
000080
000000
000F80
003FC0
00F8E0
01E070
03C070
0780F0
0F80F0
1F01E0
1E03E0
3E07C0
3C0FC0
7C0780
780000
780000
F80000
F00000
F00000
F00000
F00000
F00000
F00000
F00000
F00400
781C00
7C7C00
3FF800
0FE000
ENDCHAR
STARTCHAR cacute
ENCODING 263
SWIDTH 468 0
DWIDTH 17 0
BBX 18 28 1 0
BITMAP
0001C0
0001C0
0003C0
0003C0
000780
000780
000E00
003C00
001000
000000
00FC00
03FE00
078E00
0F0E00
1E0F00
3C0E00
3C1E00
783C00
783C00
780000
F00000
F00000
F00000
F00800
781800
787000
3FE000
1F8000
ENDCHAR
STARTCHAR Ccircumflex
ENCODING 264
SWIDTH 533 0
DWIDTH 19 0
BBX 23 35 2 0
BITMAP
000020
000070
0000F8
0003F8
000FBC
001E1E
000808
000000
000F80
003FC0
00F8E0
01E070
03C070
0780F0
0F80F0
1F01E0
1E03E0
3E07C0
3C0FC0
7C0780
780000
780000
F80000
F00000
F00000
F00000
F00000
F00000
F00000
F00000
F00400
781C00
7C7C00
3FF800
0FE000
ENDCHAR
STARTCHAR ccircumflex
ENCODING 265
SWIDTH 468 0
DWIDTH 17 0
BBX 18 28 1 0
BITMAP
000200
000700
000F80
001F80
003B80
00F380
03E3C0
0381C0
000000
000000
00FC00
03FE00
078E00
0F0E00
1E0F00
3C0E00
3C1E00
783C00
783C00
780000
F00000
F00000
F00000
F00800
781800
787000
3FE000
1F8000
ENDCHAR
STARTCHAR Cdotaccent
ENCODING 266
SWIDTH 533 0
DWIDTH 19 0
BBX 20 35 2 0
BITMAP
000100
0003C0
0007E0
0007C0
0003C0
000180
000000
000000
000F80
003FC0
00F8E0
01E070
03C070
0780F0
0F80F0
1F01E0
1E03E0
3E07C0
3C0FC0
7C0780
780000
780000
F80000
F00000
F00000
F00000
F00000
F00000
F00000
F00000
F00400
781C00
7C7C00
3FF800
0FE000
ENDCHAR
STARTCHAR cdotaccent
ENCODING 267
SWIDTH 468 0
DWIDTH 17 0
BBX 16 27 1 0
BITMAP
001E
003F
003F
003E
001C
0000
0000
0000
0000
00FC
03FE
078E
0F0E
1E0F
3C0E
3C1E
783C
783C
7800
F000
F000
F000
F008
7818
7870
3FE0
1F80
ENDCHAR
STARTCHAR Ccaron
ENCODING 268
SWIDTH 533 0
DWIDTH 19 0
BBX 24 35 2 0
BITMAP
000002
000F07
000F8F
0007BE
0003F8
0003C0
000100
000000
000F80
003FC0
00F8E0
01E070
03C070
0780F0
0F80F0
1F01E0
1E03E0
3E07C0
3C0FC0
7C0780
780000
780000
F80000
F00000
F00000
F00000
F00000
F00000
F00000
F00000
F00400
781C00
7C7C00
3FF800
0FE000
ENDCHAR
STARTCHAR ccaron
ENCODING 269
SWIDTH 468 0
DWIDTH 17 0
BBX 21 27 1 0
BITMAP
006010
00F038
0078F0
0039E0
003FC0
003F00
003C00
000000
000000
00FC00
03FE00
078E00
0F0E00
1E0F00
3C0E00
3C1E00
783C00
783C00
780000
F00000
F00000
F00000
F00800
781800
787000
3FE000
1F8000
ENDCHAR
STARTCHAR Dcaron
ENCODING 270
SWIDTH 630 0
DWIDTH 23 0
BBX 22 35 2 0
BITMAP
000008
003C0C
001E3C
001EF8
000FE0
000F00
000400
000000
03FC00
1FFF80
3FFFE0
3F03F0
3C00F0
000078
03C078
07C078
078078
0F8078
0F0078
1F0078
1E0078
1E0078
3C00F0
3C00F0
7C01E0
7803E0
7803C0
F80780
F00F00
F01E00
F07C00
E0F800
E3F000
7FC000
3E0000
ENDCHAR
STARTCHAR dcaron
ENCODING 271
SWIDTH 557 0
DWIDTH 20 0
BBX 28 30 1 0
BITMAP
00000820
00001C70
00003CF0
00003C70
00007870
00007870
000070E0
0000F0C0
0000F1C0
0000E300
0001E000
0001E000
0079C000
01FFC000
03C7C000
07078000
0E078000
1E078000
3C070000
3C0F0000
780F0000
781F0000
781E0000
703E0000
F07E0000
707E0000
79DE4000
7FDFC000
7F8FC000
1E070000
ENDCHAR
STARTCHAR Dcroat
ENCODING 272
SWIDTH 630 0
DWIDTH 23 0
BBX 22 27 1 0
BITMAP
01FE00
0FFFC0
3FFFE0
3F01F0
1C0078
000078
01E03C
03E03C
03C03C
07C03C
07803C
7FFC3C
FFF83C
FFF878
1E0078
3E00F0
3C00F0
3C01E0
7C03E0
7803C0
780780
781F00
F03E00
F07C00
71F000
7FE000
1F0000
ENDCHAR
STARTCHAR dcroat
ENCODING 273
SWIDTH 557 0
DWIDTH 20 0
BBX 23 30 1 0
BITMAP
000008
00001C
00003C
00003C
000078
001FFE
001FFC
0000F0
0000F0
0000E0
0001E0
0001E0
0079C0
01FFC0
03C7C0
070780
0E0780
1E0780
3C0700
3C0F00
780F00
781F00
781E00
703E00
F07E00
707E00
79DE40
7FDFC0
7F8FC0
1E0700
ENDCHAR
STARTCHAR Emacron
ENCODING 274
SWIDTH 509 0
DWIDTH 18 0
BBX 21 33 1 0
BITMAP
003FF8
007FF8
007FF0
000000
000000
000000
001F80
007FE0
01F870
03E070
07C070
0780F0
0F01F0
0F03E0
1E07C0
1E0F80
1E0700
1E0000
0E0000
0F7000
07F800
07F000
1F8000
3F0000
3E0000
7C0000
780000
F80400
F80E00
781C00
787C00
3FF000
0FC000
ENDCHAR
STARTCHAR emacron
ENCODING 275
SWIDTH 471 0
DWIDTH 17 0
BBX 17 24 1 0
BITMAP
03FF80
07FF80
07FF00
000000
000000
000000
00F800
01FE00
078E00
0F0E00
1E0E00
1E1E00
3C1E00
7C3E00
787C00
79F800
7FE000
FF0000
F00000
700800
781800
787800
3FF000
0FC000
ENDCHAR
STARTCHAR Ebreve
ENCODING 276
SWIDTH 509 0
DWIDTH 18 0
BBX 22 35 1 0
BITMAP
000C08
001C1C
001C38
001FF0
001FE0
000F80
000000
000000
001F80
007FE0
01F870
03E070
07C070
0780F0
0F01F0
0F03E0
1E07C0
1E0F80
1E0700
1E0000
0E0000
0F7000
07F800
07F000
1F8000
3F0000
3E0000
7C0000
780000
F80400
F80E00
781C00
787C00
3FF000
0FC000
ENDCHAR
STARTCHAR ebreve
ENCODING 277
SWIDTH 471 0
DWIDTH 17 0
BBX 18 27 1 0
BITMAP
00C080
01C0C0
01C180
01E380
01FF00
00FE00
007800
000000
000000
00F800
01FE00
078E00
0F0E00
1E0E00
1E1E00
3C1E00
7C3E00
787C00
79F800
7FE000
FF0000
F00000
700800
781800
787800
3FF000
0FC000
ENDCHAR
STARTCHAR Edotaccent
ENCODING 278
SWIDTH 509 0
DWIDTH 18 0
BBX 20 35 1 0
BITMAP
000200
000F80
001F80
001F80
000F00
000600
000000
000000
001F80
007FE0
01F870
03E070
07C070
0780F0
0F01F0
0F03E0
1E07C0
1E0F80
1E0700
1E0000
0E0000
0F7000
07F800
07F000
1F8000
3F0000
3E0000
7C0000
780000
F80400
F80E00
781C00
787C00
3FF000
0FC000
ENDCHAR
STARTCHAR edotaccent
ENCODING 279
SWIDTH 471 0
DWIDTH 17 0
BBX 15 27 1 0
BITMAP
0038
007C
007C
007C
0038
0000
0000
0000
0000
00F8
01FE
078E
0F0E
1E0E
1E1E
3C1E
7C3E
787C
79F8
7FE0
FF00
F000
7008
7818
7878
3FF0
0FC0
ENDCHAR
STARTCHAR Eogonek
ENCODING 280
SWIDTH 509 0
DWIDTH 18 0
BBX 20 36 1 -9
BITMAP
001F80
007FE0
01F870
03E070
07C070
0780F0
0F01F0
0F03E0
1E07C0
1E0F80
1E0700
1E0000
0E0000
0F7000
07F800
07F000
1F8000
3F0000
3E0000
7C0000
780000
F80600
F80E00
781C00
787C00
3FF800
0FE000
038000
070000
0E0000
0E0000
1C0000
1E8000
1F8000
1F8000
0E0000
ENDCHAR
STARTCHAR eogonek
ENCODING 281
SWIDTH 471 0
DWIDTH 17 0
BBX 15 27 1 -9
BITMAP
00F8
01FE
078E
0F0E
1E0E
1E0E
3C1E
7C3E
787C
79F8
7FE0
FF00
F000
7008
7818
7878
3FF8
0FE0
01C0
0380
0700
0E00
0E00
1E40
1FC0
1F80
0F00
ENDCHAR
STARTCHAR Ecaron
ENCODING 282
SWIDTH 509 0
DWIDTH 18 0
BBX 22 35 1 0
BITMAP
000008
003C0C
001E3C
001EF8
000FE0
000F00
000400
000000
001F80
007FE0
01F870
03E070
07C070
0780F0
0F01F0
0F03E0
1E07C0
1E0F80
1E0700
1E0000
0E0000
0F7000
07F800
07F000
1F8000
3F0000
3E0000
7C0000
780000
F80400
F80E00
781C00
787C00
3FF000
0FC000
ENDCHAR
STARTCHAR ecaron
ENCODING 283
SWIDTH 471 0
DWIDTH 17 0
BBX 19 27 1 0
BITMAP
00C020
01E0E0
00E1E0
00F3C0
007F00
007C00
007000
000000
000000
00F800
01FE00
078E00
0F0E00
1E0E00
1E1E00
3C1E00
7C3E00
787C00
79F800
7FE000
FF0000
F00000
700800
781800
787800
3FF000
0FC000
ENDCHAR
STARTCHAR Gcircumflex
ENCODING 284
SWIDTH 598 0
DWIDTH 22 0
BBX 23 35 2 0
BITMAP
000020
000070
0001F8
0003F8
000FBC
001E3E
000808
000000
000F80
003FE0
00F860
01F070
03E070
07C0F0
0F80F0
0F01E0
1E03E0
3E07C0
3C0F80
7C0700
780000
780000
F80820
F03FE0
F07FE0
F03FC0
F00F80
F00E00
F00E00
F00C00
F01C00
783800
7C7000
3FE000
0F8000
ENDCHAR
STARTCHAR gcircumflex
ENCODING 285
SWIDTH 526 0
DWIDTH 19 0
BBX 19 38 1 -10
BITMAP
000100
000380
000F80
001F80
003F80
00F3C0
03E1C0
0381E0
000000
000000
00F800
03FDC0
078FC0
0F07C0
1E0780
1E0780
3C0780
7C0F00
780F00
781F00
F81E00
F03E00
F03E00
F07C00
70FC00
79FC00
7FB800
1E3800
007800
007000
00F000
00E000
01E000
03C000
078000
0F0000
7E0000
380000
ENDCHAR
STARTCHAR Gbreve
ENCODING 286
SWIDTH 598 0
DWIDTH 22 0
BBX 23 35 2 0
BITMAP
000602
000F06
000F0E
000FFC
0007F8
0003E0
000000
000000
000F80
003FE0
00F860
01F070
03E070
07C0F0
0F80F0
0F01E0
1E03E0
3E07C0
3C0F80
7C0700
780000
780000
F80820
F03FE0
F07FE0
F03FC0
F00F80
F00E00
F00E00
F00C00
F01C00
783800
7C7000
3FE000
0F8000
ENDCHAR
STARTCHAR gbreve
ENCODING 287
SWIDTH 526 0
DWIDTH 19 0
BBX 19 37 1 -10
BITMAP
006020
00E060
00F0E0
00F1C0
007FC0
007F00
001E00
000000
000000
00F800
03FDC0
078FC0
0F07C0
1E0780
1E0780
3C0780
7C0F00
780F00
781F00
F81E00
F03E00
F03E00
F07C00
70FC00
79FC00
7FB800
1E3800
007800
007000
00F000
00E000
01E000
03C000
078000
0F0000
7E0000
380000
ENDCHAR
STARTCHAR Gdotaccent
ENCODING 288
SWIDTH 598 0
DWIDTH 22 0
BBX 20 35 2 0
BITMAP
000100
0003C0
0007E0
0007C0
0003C0
000180
000000
000000
000F80
003FE0
00F860
01F070
03E070
07C0F0
0F80F0
0F01E0
1E03E0
3E07C0
3C0F80
7C0700
780000
780000
F80820
F03FE0
F07FE0
F03FC0
F00F80
F00E00
F00E00
F00C00
F01C00
783800
7C7000
3FE000
0F8000
ENDCHAR
STARTCHAR gdotaccent
ENCODING 289
SWIDTH 526 0
DWIDTH 19 0
BBX 18 37 1 -10
BITMAP
000E00
001F00
003F00
001F00
001E00
000000
000000
000000
000000
00F800
03FDC0
078FC0
0F07C0
1E0780
1E0780
3C0780
7C0F00
780F00
781F00
F81E00
F03E00
F03E00
F07C00
70FC00
79FC00
7FB800
1E3800
007800
007000
00F000
00E000
01E000
03C000
078000
0F0000
7E0000
380000
ENDCHAR
STARTCHAR Gcommaaccent
ENCODING 290
SWIDTH 598 0
DWIDTH 22 0
BBX 20 37 2 -10
BITMAP
000F80
003FE0
00F860
01F070
03E070
07C070
0F80F0
0F01F0
1E03E0
3E07E0
3C0FC0
7C0780
780300
780000
F80000
F00820
F03FE0
F07FE0
F01FC0
F00F80
F00E00
F00E00
F01C00
781C00
7C7800
3FE000
0F8000
000000
000000
3C0000
3C0000
1C0000
1C0000
1C0000
380000
700000
600000
ENDCHAR
STARTCHAR gcommaaccent
ENCODING 291
SWIDTH 526 0
DWIDTH 19 0
BBX 18 38 1 -10
BITMAP
000380
000700
000E00
001E00
001E00
001E00
001E00
000000
000000
000000
00F800
03FDC0
078FC0
0F07C0
1E0780
1E0780
3C0780
7C0F00
780F00
781F00
F81E00
F03E00
F03E00
F07C00
70FC00
79FC00
7FB800
1E3800
007800
007000
00F000
00E000
01E000
03C000
078000
0F0000
7E0000
380000
ENDCHAR
STARTCHAR Hcircumflex
ENCODING 292
SWIDTH 668 0
DWIDTH 24 0
BBX 26 35 -1 0
BITMAP
00001000
00003800
00007C00
0001FC00
0007DE00
000F0F00
00040400
00000000
03F00180
0FF801C0
077803C0
007803C0
007803C0
007803C0
00F00780
00F00780
00F00780
00F00F00
01E00F00
01E00F00
03FFFF80
0FFFFF80
07C01F00
03C03C00
07803C00
07807800
0F007800
0F007000
1E00F000
1E00F000
3C00E000
3C00E200
7800FC00
F000FC00
E0007000
ENDCHAR
STARTCHAR hcircumflex
ENCODING 293
SWIDTH 555 0
DWIDTH 20 0
BBX 19 35 0 0
BITMAP
000800
001C00
003C00
007E00
01EE00
03CE00
0F0F00
0E0700
00E000
00E000
00F000
01E000
01E000
01E000
01E000
01C000
03C000
03C780
038FC0
079FE0
07B9E0
0773C0
0F63C0
0EC3C0
0F8780
1F0780
1F0F00
3E0F00
3C1E00
3C1E00
781E00
781E40
F01FC0
F01F80
600F00
ENDCHAR
STARTCHAR Hbar
ENCODING 294
SWIDTH 668 0
DWIDTH 24 0
BBX 29 27 -1 0
BITMAP
03F001C0
0FF801C0
077803C0
007803C0
007803C0
007803C0
00FFFFF8
0FFFFFF8
1FFFFFF0
00F00F00
01F00F00
01E00F00
01FFFF80
07FFFF80
0FC01E00
03C03C00
07803800
07807800
07007800
0F007000
0E00F000
1E00F000
3C00E000
3C00E200
7800FC00
F000FC00
E0007000
ENDCHAR
STARTCHAR hbar
ENCODING 295
SWIDTH 555 0
DWIDTH 20 0
BBX 19 30 0 0
BITMAP
004000
007000
00F000
00F000
00F000
07FF80
0FFF00
01E000
01E000
01E000
03C000
03C000
03C780
038FC0
079FE0
07B9E0
0773C0
0F63C0
0EC3C0
0F8780
1F0780
1F0F00
3E0F00
3C1E00
3C1E00
781E00
781E40
F01FC0
F01F80
600F00
ENDCHAR
STARTCHAR Itilde
ENCODING 296
SWIDTH 327 0
DWIDTH 12 0
BBX 18 34 0 0
BITMAP
00F040
03F8C0
07FFC0
063F80
041E00
000000
000000
07E000
0FF000
0E7800
007000
00F000
00F000
00F000
00F000
01F000
01E000
01E000
01E000
03C000
03C000
03C000
078000
078000
078000
0F0000
0F0000
1E0000
1E0000
3C0000
380000
780000
F00000
E00000
ENDCHAR
STARTCHAR itilde
ENCODING 297
SWIDTH 286 0
DWIDTH 10 0
BBX 15 27 1 0
BITMAP
0F06
1F86
3FCC
73FC
61F8
40E0
0000
0000
0000
0F00
1F00
0F00
0F00
0E00
1E00
1E00
1C00
3C00
3800
7800
7000
F000
F000
F000
FE00
FC00
7800
ENDCHAR
STARTCHAR Imacron
ENCODING 298
SWIDTH 327 0
DWIDTH 12 0
BBX 17 33 0 0
BITMAP
03FF80
07FF80
07FF00
000000
000000
000000
07E000
0FF000
0E7800
007000
00F000
00F000
00F000
00F000
01F000
01E000
01E000
01E000
03C000
03C000
03C000
078000
078000
078000
0F0000
0F0000
1E0000
1E0000
3C0000
380000
780000
F00000
E00000
ENDCHAR
STARTCHAR imacron
ENCODING 299
SWIDTH 286 0
DWIDTH 10 0
BBX 13 24 1 0
BITMAP
3FF8
7FF8
7FF0
0000
0000
0000
0F00
1F00
0F00
0F00
0E00
1E00
1E00
1C00
3C00
3800
7800
7000
F000
F000
F000
FE00
FC00
7800
ENDCHAR
STARTCHAR Ibreve
ENCODING 300
SWIDTH 327 0
DWIDTH 12 0
BBX 18 35 0 0
BITMAP
00C0C0
01C1C0
01C380
01FF00
01FE00
007800
000000
000000
07E000
0FF000
0E7800
007000
00F000
00F000
00F000
00F000
01F000
01E000
01E000
01E000
03C000
03C000
03C000
078000
078000
078000
0F0000
0F0000
1E0000
1E0000
3C0000
380000
780000
F00000
E00000
ENDCHAR
STARTCHAR ibreve
ENCODING 301
SWIDTH 286 0
DWIDTH 10 0
BBX 14 27 1 0
BITMAP
0C0C
1C0C
1C1C
1E38
1FF0
0FE0
0780
0000
0000
0F00
1F00
0F00
0F00
0E00
1E00
1E00
1C00
3C00
3800
7800
7000
F000
F000
F000
FE00
FC00
7800
ENDCHAR
STARTCHAR Iogonek
ENCODING 302
SWIDTH 327 0
DWIDTH 12 0
BBX 18 35 -5 -8
BITMAP
003F00
007F80
0073C0
000380
000780
000780
000780
000780
000F80
000F00
000F00
000F00
001E00
001E00
001E00
003C00
003C00
007C00
007800
007800
00F000
01E000
01E000
03C000
078000
070000
0E0000
1C0000
380000
700000
700000
F20000
FC0000
FC0000
780000
ENDCHAR
STARTCHAR iogonek
ENCODING 303
SWIDTH 297 0
DWIDTH 11 0
BBX 13 36 -1 -9
BITMAP
0070
00F8
00F8
00F8
00F0
0000
0000
0000
0000
03C0
07C0
03C0
03C0
03C0
0380
0780
0780
0700
0F00
0E00
1E00
1C00
1C00
3C00
3F80
1F80
1F00
0E00
1C00
3800
7000
7000
F200
FE00
FC00
7800
ENDCHAR
STARTCHAR Idotaccent
ENCODING 304
SWIDTH 327 0
DWIDTH 12 0
BBX 13 35 0 0
BITMAP
0020
00F8
00F8
00F8
00F0
0060
0000
0000
07E0
0FF0
0E78
0070
00F0
00F0
00F0
00F0
01F0
01E0
01E0
01E0
03C0
03C0
03C0
0780
0780
0780
0F00
0F00
1E00
1E00
3C00
3800
7800
F000
E000
ENDCHAR
STARTCHAR dotlessi
ENCODING 305
SWIDTH 286 0
DWIDTH 10 0
BBX 8 18 1 0
BITMAP
0F
1F
0F
0F
0E
1E
1E
1C
3C
38
78
70
F0
F0
F0
FE
FC
78
ENDCHAR
STARTCHAR IJ
ENCODING 306
SWIDTH 720 0
DWIDTH 26 0
BBX 27 37 0 -10
BITMAP
07E01F80
0FF0FFE0
0E79F9E0
0073E1E0
00F3C1E0
00F181E0
00F003E0
00F003C0
01F003C0
01E003C0
01E007C0
01E00780
03C00780
03C00F80
03C00F00
07800F00
07801F00
07801E00
0F003E00
0F003C00
1E003C00
1E007C00
3C007800
3800F800
7800F000
F001F000
E001E000
0003C000
0007C000
00078000
000F0000
001F0000
003E0000
007C0000
00F80000
03E00000
03800000
ENDCHAR
STARTCHAR ij
ENCODING 307
SWIDTH 567 0
DWIDTH 20 0
BBX 20 37 1 -10
BITMAP
03C0E0
07E1F0
07E1F0
07C1F0
0381E0
000000
000000
000000
000000
0F03C0
1F07C0
0F03C0
0F03C0
0E03C0
1E03C0
1E0780
1C0780
3C0780
380780
780700
700F00
F00F00
F00E00
F01E00
FE1E00
FC1C00
783C00
003800
007800
007000
00F000
00E000
01C000
03C000
078000
1E0000
1C0000
ENDCHAR
STARTCHAR Jcircumflex
ENCODING 308
SWIDTH 393 0
DWIDTH 14 0
BBX 25 44 -6 -10
BITMAP
00000C00
00003E00
00007E00
0001FF00
0007CF00
00038780
00000000
0007E000
001FF800
007E7800
00F87800
00F07800
00607800
0000F800
0000F800
0000F000
0000F000
0001F000
0001F000
0001E000
0003E000
0003E000
0003C000
0007C000
00078000
00078000
000F8000
000F0000
001F0000
001E0000
003E0000
003C0000
007C0000
00780000
00F80000
00F00000
01E00000
03C00000
07C00000
0F800000
1F000000
3E000000
F8000000
F0000000
ENDCHAR
STARTCHAR jcircumflex
ENCODING 309
SWIDTH 282 0
DWIDTH 10 0
BBX 20 37 -6 -10
BITMAP
000180
0003C0
0007C0
001FC0
003DE0
00F9E0
01E0F0
008040
000000
003C00
003E00
003E00
001E00
003E00
003C00
003C00
003C00
003C00
003800
007800
007800
007000
00F000
00F000
00E000
01E000
01E000
03C000
03C000
078000
070000
0F0000
0E0000
1C0000
380000
F00000
E00000
ENDCHAR
STARTCHAR Kcommaaccent
ENCODING 310
SWIDTH 616 0
DWIDTH 22 0
BBX 25 37 -2 -10
BITMAP
03F00700
07F80780
07780780
00780780
00780780
00780780
00780F00
00781F00
00F01E00
00F03C00
00F07800
01F1F000
01E3C000
01E78000
03EE0000
03FC0000
03FE0000
07DF0000
078F8000
07878000
0F07C000
0F03E000
1E03F000
3E01F800
7C00FF00
F8007F00
70003C00
00000000
00000000
01E00000
01E00000
01E00000
00E00000
00E00000
01C00000
03800000
03000000
ENDCHAR
STARTCHAR kcommaaccent
ENCODING 311
SWIDTH 497 0
DWIDTH 18 0
BBX 18 39 0 -10
BITMAP
004000
007000
00F000
00F000
00F000
00F000
00E000
01E000
01E000
01C000
03C000
03C380
0387C0
0383C0
0783C0
0707C0
070F80
0E1F00
0E7C00
1FF000
1FC000
1FC000
3DE000
3DE000
78F000
78F880
F07F80
F03F00
601E00
000000
000000
0E0000
1F0000
0F0000
0E0000
0E0000
1C0000
180000
300000
ENDCHAR
STARTCHAR kgreenlandic
ENCODING 312
SWIDTH 497 0
DWIDTH 18 0
BBX 18 18 0 0
BITMAP
0F0380
0F87C0
0783C0
0783C0
0707C0
0F0F80
0F1F00
0E7C00
1FF000
1FC000
3FC000
3FE000
3CE000
78F000
787880
F87F80
F03F00
601E00
ENDCHAR
STARTCHAR Lacute
ENCODING 313
SWIDTH 517 0
DWIDTH 19 0
BBX 23 35 -1 0
BITMAP
00000C
00001E
00001E
00003C
000078
0000F0
000080
000000
0003E0
000FF0
001E38
003C38
003C38
007838
00F838
00F078
01F0F0
01E1F0
01E3E0
03E7E0
03C7C0
03C100
078000
078000
0F8000
0F0000
0F0000
1E0000
1E0000
3C0000
380000
79FF80
FFFF80
FFFFC0
7800C0
ENDCHAR
STARTCHAR lacute
ENCODING 314
SWIDTH 279 0
DWIDTH 10 0
BBX 15 35 1 0
BITMAP
000C
000E
001E
003E
003C
00F0
0040
0000
0180
01C0
03C0
03C0
03C0
0380
0780
0780
0700
0F00
0F00
0E00
1E00
1E00
1C00
3C00
3C00
3800
7800
7800
7000
F000
F000
F200
FE00
7C00
7800
ENDCHAR
STARTCHAR Lcommaaccent
ENCODING 315
SWIDTH 517 0
DWIDTH 19 0
BBX 21 37 -1 -10
BITMAP
0003E0
000FF0
001E38
003C38
003C38
007838
00F838
00F078
01F0F0
01E1F0
01E3E0
03E7E0
03C7C0
03C100
078000
078000
0F8000
0F0000
0F0000
1E0000
1E0000
3C0000
380000
79FF80
FFFF80
FFFFC0
7800C0
000000
000000
0E0000
1F0000
0F0000
0E0000
0E0000
1C0000
180000
300000
ENDCHAR
STARTCHAR lcommaaccent
ENCODING 316
SWIDTH 279 0
DWIDTH 10 0
BBX 12 39 0 -10
BITMAP
0040
00E0
00F0
00E0
01E0
01E0
01E0
01C0
03C0
03C0
0380
0780
0780
0700
0F00
0F00
0E00
1E00
1E00
1C00
3C00
3C00
3800
7800
7800
7800
7F00
3F00
1C00
0000
0000
7800
7C00
3C00
3800
3800
7000
E000
C000
ENDCHAR
STARTCHAR Lcaron
ENCODING 317
SWIDTH 517 0
DWIDTH 19 0
BBX 28 34 -1 0
BITMAP
00000070
000000F0
000000F0
00000070
00000070
000000E0
000000E0
0003E1C0
000FF380
001E3800
003C3800
003C3800
00783800
00F83800
00F07800
01F0F000
01E1F000
01E3E000
03E7E000
03C7C000
03C10000
07800000
07800000
0F800000
0F000000
0F000000
1E000000
1E000000
3C000000
38000000
79FF8000
FFFF8000
FFFFC000
7800C000
ENDCHAR
STARTCHAR lcaron
ENCODING 318
SWIDTH 467 0
DWIDTH 17 0
BBX 19 30 1 0
BITMAP
008080
01C1E0
01E1E0
01C1E0
03C1E0
03C1C0
03C1C0
03C380
078700
078400
078000
070000
0F0000
0F0000
0E0000
1E0000
1E0000
1C0000
3C0000
380000
380000
780000
780000
700000
F00000
F00000
F20000
FE0000
7C0000
380000
ENDCHAR
STARTCHAR Ldot
ENCODING 319
SWIDTH 668 0
DWIDTH 24 0
BBX 26 27 -1 0
BITMAP
0003E000
000FF000
001E3800
003C3800
003C3800
00783800
00F83800
00F07800
01F0F000
01E1F000
01E3E000
03E7E000
03C7C000
03C10780
07800FC0
07800FC0
0F800F80
0F000780
0F000000
1E000000
1E000000
3C000000
38000000
79FF8000
FFFF8000
FFFFC000
7800C000
ENDCHAR
STARTCHAR ldot
ENCODING 320
SWIDTH 489 0
DWIDTH 18 0
BBX 16 30 1 0
BITMAP
0080
01C0
01E0
01C0
03C0
03C0
03C0
03C0
0780
0780
0780
0700
0F00
0F00
0E00
1E0E
1E1F
1C1F
3C1F
381E
3800
7800
7800
7000
F000
F000
F200
FE00
7C00
3800
ENDCHAR
STARTCHAR Lslash
ENCODING 321
SWIDTH 517 0
DWIDTH 19 0
BBX 21 27 -1 0
BITMAP
0003E0
000FF0
001E38
003C38
003C38
007838
00F838
00F078
00F0F0
01E1F0
01E7E0
03C7C0
03C380
03C000
07F000
0FF800
3FF800
7F0000
6F0000
1E0000
1C0000
3C0000
380C00
73FF80
FFFF80
FFFFC0
7800C0
ENDCHAR
STARTCHAR lslash
ENCODING 322
SWIDTH 279 0
DWIDTH 10 0
BBX 15 30 1 0
BITMAP
0200
0700
0FFE
07FE
03F8
01C0
03C0
03C0
0380
0780
0780
0700
0F00
0F00
0E00
1E00
1E00
1C00
3C00
3C00
3800
7800
7800
7000
F000
F000
F200
FE00
7C00
7800
ENDCHAR
STARTCHAR Nacute
ENCODING 323
SWIDTH 708 0
DWIDTH 25 0
BBX 27 35 1 0
BITMAP
00000180
000003C0
000003C0
00000780
00000F80
00001E00
00000800
00000000
001C0380
003C07C0
007C03E0
00FC03E0
01FC03E0
03BC01E0
03BC03E0
073C03C0
073C03C0
0E3C0380
0E3C0780
1C3C0780
1C3C0700
1C3C0E00
383C0E00
381E1C00
781E1C00
701E3800
701E3800
701F7000
F00F7000
E00F6000
E007E000
E007C000
E003C000
E003C000
E001C000
ENDCHAR
STARTCHAR nacute
ENCODING 324
SWIDTH 561 0
DWIDTH 20 0
BBX 19 28 0 0
BITMAP
0000C0
0001E0
0001E0
0003E0
0003C0
000780
000F00
001E00
001000
000000
070380
0F8FC0
079FE0
07B9E0
0731E0
0F63C0
0FC3C0
0F8780
1F8780
1F0F80
1E0F00
3C0F00
3C1E00
781E00
781E40
F01FC0
F00FC0
600700
ENDCHAR
STARTCHAR Ncommaaccent
ENCODING 325
SWIDTH 708 0
DWIDTH 25 0
BBX 27 37 1 -10
BITMAP
001C0380
003C07C0
007C03E0
00FC03E0
01FC03E0
03BC01E0
03BC03E0
073C03C0
073C03C0
0E3C0380
0E3C0780
1C3C0780
1C3C0700
1C3C0E00
383C0E00
381E1C00
781E1C00
701E3800
701E3800
701F7000
F00F7000
E00F6000
E007E000
E007C000
E003C000
E003C000
E001C000
00000000
00000000
00F00000
01F00000
00F00000
00F00000
00E00000
00E00000
01C00000
03000000
ENDCHAR
STARTCHAR ncommaaccent
ENCODING 326
SWIDTH 561 0
DWIDTH 20 0
BBX 19 28 0 -10
BITMAP
070380
0F8FC0
079FE0
07B9E0
0731E0
0F63C0
0FC3C0
0F8780
1F8780
1F0F80
1E0F00
3C0F00
3C1E00
781E00
781E40
F01FC0
F00FC0
600700
000000
000000
0F0000
0F0000
0F0000
070000
0F0000
0E0000
1C0000
380000
ENDCHAR
STARTCHAR Ncaron
ENCODING 327
SWIDTH 708 0
DWIDTH 25 0
BBX 27 35 1 0
BITMAP
00000020
0001F060
0000F1E0
00007BE0
00007F80
00003C00
00001000
00000000
001C0380
003C07C0
007C03E0
00FC03E0
01FC03E0
03BC01E0
03BC03E0
073C03C0
073C03C0
0E3C0380
0E3C0780
1C3C0780
1C3C0700
1C3C0E00
383C0E00
381E1C00
781E1C00
701E3800
701E3800
701F7000
F00F7000
E00F6000
E007E000
E007C000
E003C000
E003C000
E001C000
ENDCHAR
STARTCHAR ncaron
ENCODING 328
SWIDTH 561 0
DWIDTH 20 0
BBX 22 27 0 0
BITMAP
003008
00781C
003C78
001CF0
001FE0
001F80
001E00
000000
000000
070380
0F8FC0
079FE0
07B9E0
0731E0
0F63C0
0FC3C0
0F8780
1F8780
1F0F80
1E0F00
3C0F00
3C1E00
781E00
781E40
F01FC0
F00FC0
600700
ENDCHAR
STARTCHAR Eng
ENCODING 330
SWIDTH 698 0
DWIDTH 25 0
BBX 28 37 0 -10
BITMAP
000E03C0
003E03E0
007E03E0
00FE01F0
00FC01F0
01DC01E0
03DC01E0
039C01E0
079C01E0
071C01E0
0F1E01C0
0E1E03C0
0E1E03C0
1C1E0380
1C1E0780
3C1E0780
381F0700
381F0F00
380F0E00
780F0E00
700F9C00
70079C00
7007F800
F003F800
F003F000
E001F000
6001E000
0003C000
0007C000
00078000
000F0000
001E0000
003C0000
00780000
00F00000
07E00000
03800000
ENDCHAR
STARTCHAR eng
ENCODING 331
SWIDTH 561 0
DWIDTH 20 0
BBX 19 28 0 -10
BITMAP
070380
0F8FC0
079FE0
07B9E0
0731E0
0F61C0
0FC1C0
0F83C0
1F83C0
1F0380
1E0780
3C0780
3C0F00
780F00
780F00
F01E00
F01E00
603C00
003C00
007800
007800
00F000
01E000
01C000
03C000
078000
1F0000
1C0000
ENDCHAR
STARTCHAR Omacron
ENCODING 332
SWIDTH 655 0
DWIDTH 24 0
BBX 24 33 2 0
BITMAP
000FFF
001FFE
001FFC
000000
000000
000000
000FC0
003FF0
007878
01F038
03E03C
07C03C
07803C
0F003C
1F003C
1E003C
3E003C
3C003C
7C0078
780078
7800F8
7800F0
F000F0
F001E0
F003E0
F003C0
F007C0
F00F80
701F00
703E00
387C00
1FF000
0FC000
ENDCHAR
STARTCHAR omacron
ENCODING 333
SWIDTH 514 0
DWIDTH 19 0
BBX 19 24 1 0
BITMAP
00FFE0
01FFE0
03FFC0
000000
000000
000000
00F800
03FE00
078E00
0F0F00
1E0F00
3E0F00
3C0F00
7C0F00
780F00
781F00
F81E00
F03E00
F03C00
F07C00
70F800
79F000
3FE000
1F8000
ENDCHAR
STARTCHAR Obreve
ENCODING 334
SWIDTH 655 0
DWIDTH 24 0
BBX 24 35 2 0
BITMAP
000303
000703
00078E
0007FE
0007F8
0001F0
000000
000000
000FC0
003FF0
007878
01F038
03E03C
07C03C
07803C
0F003C
1F003C
1E003C
3E003C
3C003C
7C0078
780078
7800F8
7800F0
F000F0
F001E0
F003E0
F003C0
F007C0
F00F80
701F00
703E00
387C00
1FF000
0FC000
ENDCHAR
STARTCHAR obreve
ENCODING 335
SWIDTH 514 0
DWIDTH 19 0
BBX 19 27 1 0
BITMAP
006020
006060
00F0E0
00F1C0
007FC0
007F80
001E00
000000
000000
00F800
03FE00
078E00
0F0F00
1E0F00
3E0F00
3C0F00
7C0F00
780F00
781F00
F81E00
F03E00
F03C00
F07C00
70F800
79F000
3FE000
1F8000
ENDCHAR
STARTCHAR Ohungarumlaut
ENCODING 336
SWIDTH 655 0
DWIDTH 24 0
BBX 24 35 2 0
BITMAP
000083
0001C7
0001C7
0001C7
00038E
00071C
000E38
000000
000FC0
003FF0
007878
01F038
03E03C
07C03C
07803C
0F003C
1F003C
1E003C
3E003C
3C003C
7C0078
780078
7800F8
7800F0
F000F0
F001E0
F003E0
F003C0
F007C0
F00F80
701F00
703E00
387C00
1FF000
0FC000
ENDCHAR
STARTCHAR ohungarumlaut
ENCODING 337
SWIDTH 514 0
DWIDTH 19 0
BBX 20 28 1 0
BITMAP
001860
001C70
0038F0
0038E0
0071E0
00F1C0
01E380
038F00
020400
000000
00F800
03FE00
078E00
0F0F00
1E0F00
3E0F00
3C0F00
7C0F00
780F00
781F00
F81E00
F03E00
F03C00
F07C00
70F800
79F000
3FE000
1F8000
ENDCHAR
STARTCHAR OE
ENCODING 338
SWIDTH 900 0
DWIDTH 32 0
BBX 33 27 4 0
BITMAP
000FC0FC00
003FF7FF00
00F87FC380
01F03F0380
03E03E0380
07C07C0780
0F80780F00
0F00F81F00
1F00F03E00
3E00F07C00
3C00F03800
3C00F00000
7C00F00000
78007B8000
78003FC000
F0003F8000
F000FC0000
F001F80000
F001E00000
F003E00000
F007C00000
F00FC02000
F01F807000
703F81E000
787FC3C000
3FF1FF8000
0FC07E0000
ENDCHAR
STARTCHAR oe
ENCODING 339
SWIDTH 777 0
DWIDTH 28 0
BBX 26 18 2 0
BITMAP
00F81F00
03FC7F80
078EF3C0
0F0FE1C0
1E0FC1C0
3E0F83C0
3C0F83C0
780F0780
781F0F80
F81F3E00
F01FFC00
F03FE000
F03E0000
F07E0100
F0FE0300
71FF0F00
7FEFFE00
1F83F800
ENDCHAR
STARTCHAR Racute
ENCODING 340
SWIDTH 623 0
DWIDTH 22 0
BBX 24 35 -1 0
BITMAP
00001C
00001C
00003E
00003C
000078
0000F0
000080
000000
003FC0
01FFF8
07F03C
07C01E
03100E
00380E
00780F
00780E
00F01E
00F01E
01F03C
01E07C
01E1F8
03E3F0
03FFC0
03FF00
07BC00
079E00
0F0F00
0F0F00
1F0780
1E0780
3C03C0
3C03E0
7801F0
F000FE
E0007C
ENDCHAR
STARTCHAR racute
ENCODING 341
SWIDTH 407 0
DWIDTH 15 0
BBX 16 28 1 0
BITMAP
0006
000F
000F
001E
001E
003C
0078
00E0
0080
0000
1E0E
3F3E
1E7E
0E7E
1ECC
1F80
1D80
1F00
3E00
3E00
3C00
7800
7800
7000
F000
F000
E000
E000
ENDCHAR
STARTCHAR Rcommaaccent
ENCODING 342
SWIDTH 623 0
DWIDTH 22 0
BBX 24 37 -1 -10
BITMAP
003FC0
01FFF8
07F03C
07C01E
03100E
00380E
00780F
00780E
00F01E
00F01E
01F03C
01E07C
01E1F8
03E3F0
03FFC0
03FF00
07BC00
079E00
0F0F00
0F0F00
1F0780
1E0780
3C03C0
3C03E0
7801F0
F000FE
E0007C
000000
000000
038000
07C000
03C000
03C000
038000
070000
070000
0C0000
ENDCHAR
STARTCHAR rcommaaccent
ENCODING 343
SWIDTH 407 0
DWIDTH 15 0
BBX 18 28 -2 -10
BITMAP
03C1C0
07C7C0
03CFC0
03CFC0
03D980
03F000
03B000
03E000
07C000
078000
078000
0F0000
0F0000
1E0000
1E0000
1E0000
1C0000
1C0000
000000
000000
780000
7C0000
380000
380000
380000
700000
E00000
C00000
ENDCHAR
STARTCHAR Rcaron
ENCODING 344
SWIDTH 623 0
DWIDTH 22 0
BBX 24 35 -1 0
BITMAP
000002
000F03
00078F
0007BE
0003F8
0003C0
000100
000000
003FC0
01FFF8
07F03C
07C01E
03100E
00380E
00780F
00780E
00F01E
00F01E
01F03C
01E07C
01E1F8
03E3F0
03FFC0
03FF00
07BC00
079E00
0F0F00
0F0F00
1F0780
1E0780
3C03C0
3C03E0
7801F0
F000FE
E0007C
ENDCHAR
STARTCHAR rcaron
ENCODING 345
SWIDTH 407 0
DWIDTH 15 0
BBX 18 27 1 0
BITMAP
018040
03C0C0
01E3C0
01E780
00FE00
00F800
00E000
000000
000000
1E0E00
3F3E00
1E7E00
0E7E00
1ECC00
1F8000
1D8000
1F0000
3E0000
3E0000
3C0000
780000
780000
700000
F00000
F00000
E00000
E00000
ENDCHAR
STARTCHAR Sacute
ENCODING 346
SWIDTH 474 0
DWIDTH 17 0
BBX 20 35 1 0
BITMAP
000070
000070
0000F0
0000F0
0001E0
0003C0
000200
000000
003E00
00FF80
03E3C0
0781C0
0701E0
0F01E0
0E01E0
1E01E0
1E03C0
1E07C0
1E0F80
1F0F80
1F0600
0F8000
0F8000
07C000
07E000
03E000
01F000
20F000
60F000
E07000
E07000
F0E000
F0E000
7F8000
3F0000
ENDCHAR
STARTCHAR sacute
ENCODING 347
SWIDTH 423 0
DWIDTH 15 0
BBX 17 28 0 0
BITMAP
000300
000780
000780
000780
000F00
001E00
003C00
007800
004000
000000
01F800
07FC00
0F1E00
0E0E00
0E0E00
1E1C00
0F0000
0F8000
0F8000
07C000
03E000
03E000
21E000
70E000
F0E000
79E000
7FC000
3F0000
ENDCHAR
STARTCHAR Scircumflex
ENCODING 348
SWIDTH 474 0
DWIDTH 17 0
BBX 21 35 1 0
BITMAP
0000C0
0001C0
0003E0
000FE0
003EF0
007878
002010
000000
003E00
00FF80
03E3C0
0781C0
0701E0
0F01E0
0E01E0
1E01E0
1E03C0
1E07C0
1E0F80
1F0F80
1F0600
0F8000
0F8000
07C000
07E000
03E000
01F000
20F000
60F000
E07000
E07000
F0E000
F0E000
7F8000
3F0000
ENDCHAR
STARTCHAR scircumflex
ENCODING 349
SWIDTH 423 0
DWIDTH 15 0
BBX 18 28 0 0
BITMAP
000200
000700
000F00
003F00
007F80
01F380
07C380
0381C0
000000
000000
01F800
07FC00
0F1E00
0E0E00
0E0E00
1E1C00
0F0000
0F8000
0F8000
07C000
03E000
03E000
21E000
70E000
F0E000
79E000
7FC000
3F0000
ENDCHAR
STARTCHAR Scedilla
ENCODING 350
SWIDTH 474 0
DWIDTH 17 0
BBX 19 35 1 -8
BITMAP
003E00
00FF80
03E3C0
0781C0
0701E0
0F01E0
0E01E0
1E01E0
1E03C0
1E07C0
1E0F80
1F0F00
1F0000
0F8000
0FC000
07C000
03E000
01E000
00F000
60F000
E07000
E07000
E07000
F0E000
FFC000
7F8000
1E0000
0C0000
0E0000
0E0000
1E0000
3E0000
7C0000
780000
200000
ENDCHAR
STARTCHAR scedilla
ENCODING 351
SWIDTH 423 0
DWIDTH 15 0
BBX 15 26 0 -8
BITMAP
01F8
07FC
0F1E
0E0E
0E0E
1E1C
0F00
0F80
0F80
07C0
03E0
03E0
61E0
70E0
F0E0
71E0
7FC0
1F00
0C00
0C00
0E00
1E00
1C00
7C00
7C00
7000
ENDCHAR
STARTCHAR Scaron
ENCODING 352
SWIDTH 474 0
DWIDTH 17 0
BBX 22 35 1 0
BITMAP
000008
003C0C
001E3C
001EF8
000FE0
000F80
000400
000000
003E00
00FF80
03E3C0
0781C0
0701E0
0F01E0
0E01E0
1E01E0
1E03C0
1E07C0
1E0F80
1F0F80
1F0600
0F8000
0F8000
07C000
07E000
03E000
01F000
20F000
60F000
E07000
E07000
F0E000
F0E000
7F8000
3F0000
ENDCHAR
STARTCHAR scaron
ENCODING 353
SWIDTH 423 0
DWIDTH 15 0
BBX 20 27 0 0
BITMAP
006030
00F070
0070F0
0073E0
007F80
003E00
003800
000000
000000
01F800
07FC00
0F1E00
0E0E00
0E0E00
1E1C00
0F0000
0F8000
0F8000
07C000
03E000
03E000
21E000
70E000
F0E000
79E000
7FC000
3F0000
ENDCHAR
STARTCHAR Tcommaaccent
ENCODING 354
SWIDTH 471 0
DWIDTH 17 0
BBX 21 37 2 -10
BITMAP
1FC018
3FFC18
7FFFF0
783FF0
F07BE0
F07800
607800
20F000
00F000
00F000
01F000
01E000
01E000
03E000
03C000
03C000
03C000
078000
078000
0F0000
0F0000
0E0000
1E0000
1C0000
3C0000
F80000
600000
000000
000000
380000
7C0000
3C0000
380000
380000
700000
E00000
C00000
ENDCHAR
STARTCHAR tcommaaccent
ENCODING 355
SWIDTH 358 0
DWIDTH 13 0
BBX 14 32 0 -10
BITMAP
00E0
01E0
01E0
03C0
1FFC
3FF8
0F00
0F00
0F00
0E00
1E00
1E00
1C00
3C00
3C00
3C00
3800
3820
3C60
3FC0
1FC0
0F00
0000
0000
3800
7C00
3C00
3C00
3800
7000
7000
C000
ENDCHAR
STARTCHAR Tcaron
ENCODING 356
SWIDTH 471 0
DWIDTH 17 0
BBX 22 35 2 0
BITMAP
000008
003C1C
001E3C
001EF8
000FE0
000F00
000400
000000
1FF018
3FFFF8
7FFFF0
F83FE0
F07800
607800
607800
00F000
00F000
00F000
01E000
01E000
01E000
03E000
03C000
03C000
078000
078000
078000
0F0000
0F0000
0E0000
1E0000
1C0000
3C0000
F80000
600000
ENDCHAR
STARTCHAR tcaron
ENCODING 357
SWIDTH 497 0
DWIDTH 18 0
BBX 18 30 3 0
BITMAP
000080
0001C0
0003C0
0001C0
0001C0
0001C0
000380
018380
03C700
078400
078000
0F0000
7FF800
7FF000
1E0000
1E0000
3C0000
3C0000
380000
780000
780000
780000
700000
F00000
F00000
F0C000
F18000
7F8000
7F0000
3C0000
ENDCHAR
STARTCHAR Tbar
ENCODING 358
SWIDTH 471 0
DWIDTH 17 0
BBX 21 27 2 0
BITMAP
1FF018
3FFFF8
7FFFF0
F83FE0
F07800
607800
607800
00F000
00F000
00F000
01E000
01E000
7FFC00
FFF800
FFF000
03C000
03C000
078000
078000
070000
0F0000
0F0000
1E0000
1C0000
3C0000
F80000
600000
ENDCHAR
STARTCHAR tbar
ENCODING 359
SWIDTH 358 0
DWIDTH 13 0
BBX 13 23 1 0
BITMAP
01C0
03C0
03C0
0780
0780
3FF8
7FF0
0E00
1E00
1E00
1E00
7FF0
FFE0
3800
7800
7800
7800
7000
7040
78C0
7F80
3F80
1E00
ENDCHAR
STARTCHAR Utilde
ENCODING 360
SWIDTH 624 0
DWIDTH 22 0
BBX 24 35 1 0
BITMAP
000782
000FC2
001FC6
0039FE
0031FC
002070
000000
000000
03C006
03E00F
01E00F
01E01E
01E01E
03C03C
03C07C
07C078
0780F8
0780F8
0F01F0
0F01F0
1E03F0
1E03E0
3C07E0
3C07E0
380FC0
781FC0
781BC0
F03BC0
F07380
F06780
F0C780
F38788
FF03F8
FE03F0
7C01E0
ENDCHAR
STARTCHAR utilde
ENCODING 361
SWIDTH 553 0
DWIDTH 20 0
BBX 21 27 1 0
BITMAP
003C18
007E18
00FF30
00CFF0
0187E0
018380
000000
000000
000000
0E01C0
1F01E0
0F03C0
0F03C0
0F0780
1E0F80
1E0F00
3E1F00
3C1E00
3C3E00
787E00
78FC00
F0DC00
F19C00
F33C00
FE3F80
FC1F80
781E00
ENDCHAR
STARTCHAR Umacron
ENCODING 362
SWIDTH 624 0
DWIDTH 22 0
BBX 24 33 1 0
BITMAP
001FFE
003FFC
003FF8
000000
000000
000000
03C006
03E00F
01E00F
01E01E
01E01E
03C03C
03C07C
07C078
0780F8
0780F8
0F01F0
0F01F0
1E03F0
1E03E0
3C07E0
3C07E0
380FC0
781FC0
781BC0
F03BC0
F07380
F06780
F0C780
F38788
FF03F8
FE03F0
7C01E0
ENDCHAR
STARTCHAR umacron
ENCODING 363
SWIDTH 553 0
DWIDTH 20 0
BBX 20 24 1 0
BITMAP
00FFF0
01FFF0
01FFE0
000000
000000
000000
0E01C0
1F01E0
0F03C0
0F03C0
0F0780
1E0F80
1E0F00
3E1F00
3C1E00
3C3E00
787E00
78FC00
F0DC00
F19C00
F33C00
FE3F80
FC1F80
781E00
ENDCHAR
STARTCHAR Ubreve
ENCODING 364
SWIDTH 624 0
DWIDTH 22 0
BBX 24 35 1 0
BITMAP
000606
000E0E
000F1C
000FFC
000FF0
0003E0
000000
000000
03C006
03E00F
01E00F
01E01E
01E01E
03C03C
03C07C
07C078
0780F8
0780F8
0F01F0
0F01F0
1E03F0
1E03E0
3C07E0
3C07E0
380FC0
781FC0
781BC0
F03BC0
F07380
F06780
F0C780
F38788
FF03F8
FE03F0
7C01E0
ENDCHAR
STARTCHAR ubreve
ENCODING 365
SWIDTH 553 0
DWIDTH 20 0
BBX 20 27 1 0
BITMAP
003010
007030
007070
0078E0
007FC0
003F80
001F00
000000
000000
0E01C0
1F01E0
0F03C0
0F03C0
0F0780
1E0F80
1E0F00
3E1F00
3C1E00
3C3E00
787E00
78FC00
F0DC00
F19C00
F33C00
FE3F80
FC1F80
781E00
ENDCHAR
STARTCHAR Uring
ENCODING 366
SWIDTH 624 0
DWIDTH 22 0
BBX 24 35 1 0
BITMAP
0001F0
0003F8
00073C
000F1C
000E1C
000E38
000E38
000E70
03C3E6
03E00F
01E00F
01E01E
01E01E
03C03C
03C07C
07C078
0780F8
0780F8
0F01F0
0F01F0
1E03F0
1E03E0
3C07E0
3C07E0
380FC0
781FC0
781BC0
F03BC0
F07380
F06780
F0C780
F38788
FF03F8
FE03F0
7C01E0
ENDCHAR
STARTCHAR uring
ENCODING 367
SWIDTH 553 0
DWIDTH 20 0
BBX 19 28 1 0
BITMAP
000F80
001FC0
0038E0
0070E0
0070E0
0071C0
003F80
001F00
000000
000000
0E01C0
1F01E0
0F03C0
0F03C0
0F0780
1E0F80
1E0F00
3E1F00
3C1E00
3C3E00
787E00
78FC00
F0DC00
F19C00
F33C00
FE3F80
FC1F80
781E00
ENDCHAR
STARTCHAR Uhungarumlaut
ENCODING 368
SWIDTH 624 0
DWIDTH 22 0
BBX 24 35 1 0
BITMAP
000106
00038E
00038E
00078E
00071C
000E38
001C70
000000
03C006
03E00F
01E00F
01E01E
01E01E
03C03C
03C07C
07C078
0780F8
0780F8
0F01F0
0F01F0
1E03F0
1E03E0
3C07E0
3C07E0
380FC0
781FC0
781BC0
F03BC0
F07380
F06780
F0C780
F38788
FF03F8
FE03F0
7C01E0
ENDCHAR
STARTCHAR uhungarumlaut
ENCODING 369
SWIDTH 553 0
DWIDTH 20 0
BBX 21 28 1 0
BITMAP
000C30
001C38
001C78
003C70
0038E0
0071E0
00E3C0
01C700
010200
000000
0E01C0
1F01E0
0F03C0
0F03C0
0F0780
1E0F80
1E0F00
3E1F00
3C1E00
3C3E00
787E00
78FC00
F0DC00
F19C00
F33C00
FE3F80
FC1F80
781E00
ENDCHAR
STARTCHAR Uogonek
ENCODING 370
SWIDTH 684 0
DWIDTH 25 0
BBX 24 36 2 -9
BITMAP
03C006
03E00F
01E00F
01E01E
01E01E
03C03C
03C03C
03C07C
078078
0780F8
0F01F0
0F01F0
1E03F0
1E03E0
3C07E0
3C07E0
3C0FC0
781DC0
781BC0
703BC0
F07380
F06380
F0C780
F38788
FF83F8
FE03F0
7C01E0
0001C0
000380
000700
000E00
000E00
000E40
001FC0
000F80
000F00
ENDCHAR
STARTCHAR uogonek
ENCODING 371
SWIDTH 553 0
DWIDTH 20 0
BBX 19 27 1 -9
BITMAP
0E01C0
1F01E0
0F03C0
0F03C0
0F0780
1E0F80
1E0F00
3E1F00
3C1E00
3C3E00
787E00
78FC00
F0DC00
F19C00
F33C00
FE3F80
FC1F80
781F00
000C00
003800
003800
007000
00F000
00F200
00FE00
00FC00
007000
ENDCHAR
STARTCHAR Wcircumflex
ENCODING 372
SWIDTH 941 0
DWIDTH 34 0
BBX 34 35 2 0
BITMAP
0000030000
0000078000
00000F8000
00003FC000
00007BC000
0001F1E000
0000804000
0000000000
0F80000380
3FC0000F80
7FE0000FC0
78E00007C0
01E00007C0
03E00C07C0
03C03E03C0
07C07C03C0
07C0FC03C0
0F81F80780
0F83F00780
1F07F00780
1F0FE00780
1E0FE00F00
3E1DC00F00
3C3FC00E00
3C7BC01E00
7873C01C00
78E3803C00
79C3803800
7187807000
738780E000
F70381E000
7603838000
7E03C70000
7C01FE0000
3800F80000
ENDCHAR
STARTCHAR wcircumflex
ENCODING 373
SWIDTH 750 0
DWIDTH 27 0
BBX 26 28 1 0
BITMAP
00002000
00007000
0000F000
0003F000
0007F000
001E7800
007C3800
00301C00
00000000
00000000
1E000700
3F010780
1F078780
0F0783C0
0F0F03C0
0E0F0380
1E1F0380
1C1E0380
1C3E0780
3C7C0700
387C0700
78FC0E00
71BC1C00
73BC1C00
F73C7800
FE1FF000
F81FC000
700F8000
ENDCHAR
STARTCHAR Ycircumflex
ENCODING 374
SWIDTH 580 0
DWIDTH 21 0
BBX 24 44 1 -10
BITMAP
0000E0
0001F0
0003F0
000F78
003E78
00383C
000000
03C006
07E00F
03E01F
01E01E
01E03E
03C03C
03C07C
078078
0780F8
0F80F8
0F01F0
0F01F0
1E03F0
1E03E0
3C07E0
3C07C0
780FC0
781FC0
781B80
F03F80
F07780
F0E700
F0CF00
F38E00
FF1E00
FE1C00
783C00
003800
007800
00F000
01E000
01E000
03C000
078000
1F0000
7C0000
780000
ENDCHAR
STARTCHAR ycircumflex
ENCODING 375
SWIDTH 549 0
DWIDTH 20 0
BBX 19 38 1 -10
BITMAP
000200
000380
000F80
001F80
003F80
00F3C0
03E1C0
0381E0
000000
000000
0F00C0
1F01E0
0F03C0
0F03C0
0F07C0
0E0780
1E0F80
1E0F80
3C1F00
3C3F00
783F00
786E00
F0DE00
F1DE00
F39C00
FF3C00
FE3800
783800
007000
007000
00E000
01E000
01C000
038000
0F8000
1F0000
7C0000
380000
ENDCHAR
STARTCHAR Ydieresis
ENCODING 376
SWIDTH 580 0
DWIDTH 21 0
BBX 24 44 1 -10
BITMAP
001C1C
003E3E
003E3E
003E3E
003C1C
000000
000000
03C006
07E00F
03E01F
01E01E
01E03E
03C03C
03C07C
078078
0780F8
0F80F8
0F01F0
0F01F0
1E03F0
1E03E0
3C07E0
3C07C0
780FC0
781FC0
781B80
F03F80
F07780
F0E700
F0CF00
F38E00
FF1E00
FE1C00
783C00
003800
007800
00F000
01E000
01E000
03C000
078000
1F0000
7C0000
780000
ENDCHAR
STARTCHAR Zacute
ENCODING 377
SWIDTH 501 0
DWIDTH 18 0
BBX 22 35 0 0
BITMAP
000060
000070
0000F0
0001F0
0003E0
000780
000200
000000
0601F0
07FFF8
07FFBC
07FE78
03F0F8
0001F0
0003E0
0007C0
000F80
001F00
003E00
007C00
00F800
01F000
01E000
03C000
078000
0F0000
1E0000
3C0000
380000
780000
F0FE00
EFFF00
FFFF80
FE0380
F00180
ENDCHAR
STARTCHAR zacute
ENCODING 378
SWIDTH 430 0
DWIDTH 15 0
BBX 17 28 0 0
BITMAP
000380
000380
000380
000780
000F80
000F00
001C00
003800
002000
000000
0E0700
0FFF00
07FF80
038F00
001E00
007C00
00F800
01F000
03E000
07C000
0F8000
1E0000
3C0000
780000
7BF000
FFF800
FFF800
701800
ENDCHAR
STARTCHAR Zdotaccent
ENCODING 379
SWIDTH 501 0
DWIDTH 18 0
BBX 22 35 0 0
BITMAP
000400
000F00
001F00
001F00
001F00
000600
000000
000000
0601F0
07FFF8
07FFBC
07FE78
03F0F8
0001F0
0003E0
0007C0
000F80
001F00
003E00
007C00
00F800
01F000
01E000
03C000
078000
0F0000
1E0000
3C0000
380000
780000
F0FE00
EFFF00
FFFF80
FE0380
F00180
ENDCHAR
STARTCHAR zdotaccent
ENCODING 380
SWIDTH 430 0
DWIDTH 15 0
BBX 17 27 0 0
BITMAP
003800
007C00
007C00
007C00
003800
000000
000000
000000
000000
0E0700
0FFF00
07FF80
038F00
001E00
007C00
00F800
01F000
03E000
07C000
0F8000
1E0000
3C0000
780000
7BF000
FFF800
FFF800
701800
ENDCHAR
STARTCHAR Zcaron
ENCODING 381
SWIDTH 501 0
DWIDTH 18 0
BBX 22 35 0 0
BITMAP
000008
007C1C
003E38
001EF8
000FE0
000F00
000400
000000
0601F0
07FFF8
07FFBC
07FE78
03F0F8
0001F0
0003E0
0007C0
000F80
001F00
003E00
007C00
00F800
01F000
01E000
03C000
078000
0F0000
1E0000
3C0000
380000
780000
F0FE00
EFFF00
FFFF80
FE0380
F00180
ENDCHAR
STARTCHAR zcaron
ENCODING 382
SWIDTH 430 0
DWIDTH 15 0
BBX 19 27 0 0
BITMAP
00C060
01E0E0
00E1E0
00F7C0
00FF00
007C00
007000
000000
000000
0E0700
0FFF00
07FF80
038F00
001E00
007C00
00F800
01F000
03E000
07C000
0F8000
1E0000
3C0000
780000
7BF000
FFF800
FFF800
701800
ENDCHAR
STARTCHAR florin
ENCODING 402
SWIDTH 466 0
DWIDTH 17 0
BBX 28 39 -7 -10
BITMAP
000003C0
00000FE0
00001E70
00001C30
00003870
00007870
000070F0
0000F1F0
0000E3E0
0001E1C0
0001E080
0001C000
0003C000
0003F800
0007FC00
001FFE00
003FFE00
003F8000
000F0000
000F0000
000F0000
000F0000
001E0000
001E0000
001E0000
001C0000
003C0000
003C0000
003C0000
00380000
00780000
00780000
00700000
30F00000
70E00000
F1E00000
F3C00000
7F800000
3F000000
ENDCHAR
STARTCHAR AEacute
ENCODING 508
SWIDTH 878 0
DWIDTH 32 0
BBX 37 35 -3 0
BITMAP
0000000600
0000000700
0000000F00
0000001F00
0000003E00
0000007800
0000002000
0000000000
000007CFE0
00001FFFF0
00003FFC38
000079F818
0000F1E038
0001E3C038
0003C7C078
00078781F0
00070783F0
000F0F03E0
001E0F01C0
001C070000
003C078000
007BFFF800
00FFFFFC00
03FFFFF000
03E00FC000
01C01F8000
03C01F0000
03803E0000
07803C0100
0F003C0300
0F003C0700
1E003C1F00
3C003FFE00
F8001FF800
700007E000
ENDCHAR
STARTCHAR aeacute
ENCODING 509
SWIDTH 770 0
DWIDTH 28 0
BBX 26 28 1 0
BITMAP
00007000
00007000
0000F000
0000F000
0001E000
0001E000
0003C000
00070000
00040000
00000000
00F9DF00
01FFFF80
078FE3C0
0F07C3C0
1E07C3C0
1C0F83C0
3C0F07C0
780F0F80
781F1F80
781E3F00
F03FFC00
F03FE000
F07E0000
F07E0000
F0DE0300
798F0F00
7F07FE00
1E03F800
ENDCHAR
STARTCHAR Scommaaccent
ENCODING 536
SWIDTH 474 0
DWIDTH 17 0
BBX 19 37 1 -10
BITMAP
003E00
00FF80
03E3C0
0781C0
0701E0
0F01E0
0E01E0
1E01E0
1E03C0
1E07C0
1E0F80
1F0F80
1F0600
0F8000
0F8000
07C000
07E000
03E000
01F000
20F000
60F000
E07000
E07000
F0E000
F0E000
7F8000
3F0000
000000
000000
1C0000
3E0000
1E0000
1E0000
1C0000
380000
300000
600000
ENDCHAR
STARTCHAR scommaaccent
ENCODING 537
SWIDTH 423 0
DWIDTH 15 0
BBX 15 28 0 -10
BITMAP
01F8
07FC
0F1E
0E0E
0E0E
1E1C
0F00
0F80
0F80
07C0
03E0
03E0
21E0
70E0
F0E0
79E0
7FC0
3F00
0000
0000
1C00
3E00
1E00
1C00
1C00
3800
7000
6000
ENDCHAR
STARTCHAR dotlessj
ENCODING 567
SWIDTH 277 0
DWIDTH 10 0
BBX 15 28 -6 -10
BITMAP
003C
007E
003E
003E
003C
003C
003C
003C
003C
0078
0078
0078
0070
00F0
00F0
01E0
01E0
01C0
03C0
0380
0780
0700
0F00
1E00
1C00
3800
F000
E000
ENDCHAR
STARTCHAR circumflex
ENCODING 710
SWIDTH 354 0
DWIDTH 13 0
BBX 13 8 0 20
BITMAP
0040
00E0
01E0
07E0
0FF0
3E70
F870
6038
ENDCHAR
STARTCHAR caron
ENCODING 711
SWIDTH 381 0
DWIDTH 14 0
BBX 12 7 2 20
BITMAP
C020
E070
F1E0
73C0
7F00
7E00
3000
ENDCHAR
STARTCHAR breve
ENCODING 728
SWIDTH 344 0
DWIDTH 12 0
BBX 11 6 2 21
BITMAP
6040
E0E0
E1C0
FF80
FF00
7C00
ENDCHAR
STARTCHAR dotaccent
ENCODING 729
SWIDTH 217 0
DWIDTH 8 0
BBX 6 5 2 22
BITMAP
38
7C
FC
78
78
ENDCHAR
STARTCHAR ring
ENCODING 730
SWIDTH 402 0
DWIDTH 14 0
BBX 9 9 5 19
BITMAP
1F00
3F80
7380
E380
E380
E380
E780
FF00
7C00
ENDCHAR
STARTCHAR ogonek
ENCODING 731
SWIDTH 311 0
DWIDTH 11 0
BBX 9 11 2 -9
BITMAP
0080
0700
0C00
3800
7000
7000
E000
E400
FC00
F800
F000
ENDCHAR
STARTCHAR tilde
ENCODING 732
SWIDTH 397 0
DWIDTH 14 0
BBX 14 5 2 22
BITMAP
1E0C
3F9C
7FF8
E7F0
C1E0
ENDCHAR
STARTCHAR hungarumlaut
ENCODING 733
SWIDTH 392 0
DWIDTH 14 0
BBX 14 9 1 20
BITMAP
0408
0E18
0E3C
0E38
1C78
3C70
38E0
F1C0
C380
ENDCHAR
STARTCHAR pi
ENCODING 960
SWIDTH 640 0
DWIDTH 23 0
BBX 24 18 -1 0
BITMAP
03FFFF
07FFFF
0FFFFF
1871F8
0060F0
00E0E0
00E1E0
01C1E0
01C1C0
0383C0
0383C0
078380
0F0380
1F0780
3E0790
7C07F0
FC03F0
7001C0
ENDCHAR
STARTCHAR uni1E02
ENCODING 7682
SWIDTH 551 0
DWIDTH 20 0
BBX 20 35 2 0
BITMAP
000400
001F00
001F00
001F00
001E00
000C00
000000
000000
01FE00
1FFF80
3F83C0
7C01E0
3200E0
0380F0
07C0F0
0F80F0
0F01E0
1F01E0
1E03C0
3E0780
3C1F80
7C7E00
7FFC00
7FF800
FC3E00
F01E00
F00E00
E00F00
E00E00
E01E00
E03E00
E07C00
F1F800
7FE000
3F0000
ENDCHAR
STARTCHAR uni1E03
ENCODING 7683
SWIDTH 525 0
DWIDTH 19 0
BBX 19 30 1 0
BITMAP
010000
03C000
03C000
03C1C0
03C3E0
0383E0
0783E0
0783C0
078000
070000
0F0000
0F0000
0E3C00
1EFE00
1DCF00
1F8F00
3F0F80
3E0F80
3C0F80
7C0F00
780F00
780F00
701F00
F01E00
F03E00
F07C00
70F800
73F000
3FC000
1F0000
ENDCHAR
STARTCHAR uni1E0A
ENCODING 7690
SWIDTH 630 0
DWIDTH 23 0
BBX 21 35 2 0
BITMAP
000200
000F80
001F80
000F80
000F00
000600
000000
000000
03FC00
1FFF80
3FFFE0
3F03F0
3C00F0
000078
03C078
07C078
078078
0F8078
0F0078
1F0078
1E0078
1E0078
3C00F0
3C00F0
7C01E0
7803E0
7803C0
F80780
F00F00
F01E00
F07C00
E0F800
E3F000
7FC000
3E0000
ENDCHAR
STARTCHAR uni1E0B
ENCODING 7691
SWIDTH 557 0
DWIDTH 20 0
BBX 22 30 1 0
BITMAP
000008
00001C
00003C
01C03C
03E078
03E078
03E070
01C0F0
0000F0
0000E0
0001E0
0001E0
0079C0
01FFC0
03C7C0
070780
0E0780
1E0780
3C0700
3C0F00
780F00
781F00
781E00
703E00
F07E00
707E00
79DE40
7FDFC0
7F8FC0
1E0700
ENDCHAR
STARTCHAR uni1E1E
ENCODING 7710
SWIDTH 518 0
DWIDTH 19 0
BBX 21 35 1 0
BITMAP
000100
0007C0
0007C0
0007C0
0007C0
000300
000000
000000
0FF008
3FFFF8
7FFFF8
7C3FF0
783800
707800
307800
00F000
00F000
00F000
01E000
01E000
01FF00
07FF80
1FFF80
1FC000
078000
078000
0F8000
0F0000
0F0000
1E0000
1E0000
3C0000
780000
F00000
E00000
ENDCHAR
STARTCHAR uni1E1F
ENCODING 7711
SWIDTH 393 0
DWIDTH 14 0
BBX 20 40 -1 -5
BITMAP
000200
000F80
001F80
001F80
000F00
000600
0003C0
000FF0
001E70
003C70
003870
0078F0
0079F0
0071E0
00F040
00F000
00F000
00E000
01E000
01FE00
07FF00
1FFF00
1FC000
038000
078000
078000
078000
0F0000
0F0000
0F0000
0E0000
1E0000
1E0000
3C0000
3C0000
3C0000
780000
780000
F00000
F00000
ENDCHAR
STARTCHAR uni1E40
ENCODING 7744
SWIDTH 931 0
DWIDTH 34 0
BBX 38 35 -4 0
BITMAP
0000000200
0000000F80
0000000F80
0000000F80
0000000F00
0000000600
0000000000
0000000000
00000F0038
00003F80FC
00007F01F8
0000EF03B8
0001CF0778
0001DE0F70
00039E0EF0
00071C1CF0
000F3C1CE0
000E3C39E0
001C3871E0
001C7871C0
003878E3C0
003878E3C0
007071C380
0070F1C780
00E0F38780
01E0F38780
01C0F70700
03C0F70F00
0380FE0F00
0700EE0F00
0F00FC0F00
1E00F80F10
3C00F80FF0
FC00F007E0
70006003C0
ENDCHAR
STARTCHAR uni1E41
ENCODING 7745
SWIDTH 814 0
DWIDTH 29 0
BBX 28 27 0 0
BITMAP
00007000
0000F800
0001F800
0000F000
0000F000
00000000
00000000
00000000
00000000
070381E0
0F8FC3F0
079FC7F0
07B9CCF0
0731D8F0
0F61F1E0
0FC3F1E0
0F83E3E0
1F87C3C0
1F0787C0
1E0F8780
3C0F0780
3C0F0F00
781E0F00
781E0F20
F03C0FE0
F03C07E0
60180380
ENDCHAR
STARTCHAR uni1E56
ENCODING 7766
SWIDTH 553 0
DWIDTH 20 0
BBX 23 35 -1 0
BITMAP
000020
0000F8
0000F8
0000F8
0000F0
000060
000000
000000
003FC0
01FFF0
07F83C
07C01E
07801E
02301E
00781E
00781E
00F01E
00F03E
01E03C
01E07C
01E1F8
03C3F0
03DFC0
07FF00
07F800
078000
0F0000
0F0000
1E0000
1E0000
3C0000
3C0000
780000
F00000
E00000
ENDCHAR
STARTCHAR uni1E57
ENCODING 7767
SWIDTH 550 0
DWIDTH 20 0
BBX 21 37 -3 -10
BITMAP
0003C0
0007E0
0007E0
0007C0
000380
000000
000000
000000
000000
01C1E0
03E7F0
01EE78
01FC78
01F838
01F038
01E078
03E078
03C078
03C078
0380F0
0780F0
0781E0
0783C0
0F87C0
0FDF00
0EFE00
0E7800
1E0000
1E0000
1C0000
3C0000
3C0000
380000
780000
780000
F00000
600000
ENDCHAR
STARTCHAR uni1E60
ENCODING 7776
SWIDTH 474 0
DWIDTH 17 0
BBX 19 35 1 0
BITMAP
000200
000F80
001F80
001F80
000F00
000600
000000
000000
003E00
00FF80
03E3C0
0781C0
0701E0
0F01E0
0E01E0
1E01E0
1E03C0
1E07C0
1E0F80
1F0F80
1F0600
0F8000
0F8000
07C000
07E000
03E000
01F000
20F000
60F000
E07000
E07000
F0E000
F0E000
7F8000
3F0000
ENDCHAR
STARTCHAR uni1E61
ENCODING 7777
SWIDTH 423 0
DWIDTH 15 0
BBX 15 27 0 0
BITMAP
001C
003E
003E
003E
001C
0000
0000
0000
0000
01F8
07FC
0F1E
0E0E
0E0E
1E1C
0F00
0F80
0F80
07C0
03E0
03E0
21E0
70E0
F0E0
79E0
7FC0
3F00
ENDCHAR
STARTCHAR uni1E6A
ENCODING 7786
SWIDTH 430 0
DWIDTH 15 0
BBX 21 35 1 0
BITMAP
000200
000F80
000F80
000F80
000F00
000600
000000
000000
1FF018
3FFFF8
7FFFF0
783FE0
F03800
707800
207800
00F000
00F000
00F000
01F000
01E000
01E000
03E000
03C000
03C000
03C000
078000
078000
070000
0F0000
0F0000
1E0000
1C0000
3C0000
F80000
700000
ENDCHAR
STARTCHAR uni1E6B
ENCODING 7787
SWIDTH 358 0
DWIDTH 13 0
BBX 12 28 3 0
BITMAP
01E0
03F0
03F0
03E0
01E0
0300
0780
0780
0F00
0F00
7FF0
FFE0
3C00
3C00
3C00
7800
7800
7800
7000
F000
F000
E000
E000
E080
E380
FF00
FE00
7C00
ENDCHAR
STARTCHAR Wgrave
ENCODING 7808
SWIDTH 941 0
DWIDTH 34 0
BBX 34 35 2 0
BITMAP
0000300000
0000780000
0000780000
00007C0000
00003C0000
00001F0000
0000020000
0000000000
0F80000380
3FC0000F80
7FE0000FC0
78E00007C0
01E00007C0
03E00C07C0
03C03E03C0
07C07C03C0
0780F803C0
0F81F80780
0F03F00780
1F07F00780
1E0FE00780
1E1FE00F00
3C1DC00F00
3C3BC00E00
3873C01E00
78F3C01C00
78E3803C00
71C7807800
738780F000
738780E000
F70381E000
7603878000
7C03FF0000
7C01FE0000
3800F80000
ENDCHAR
STARTCHAR wgrave
ENCODING 7809
SWIDTH 750 0
DWIDTH 27 0
BBX 26 28 1 0
BITMAP
00030000
00078000
000F0000
00070000
00070000
00078000
00038000
00018000
00008000
00000000
1E000700
3F010780
1F078780
0F0783C0
0F0F03C0
0E0F0380
1E1F0380
1C1E0380
1C3E0780
3C7C0700
387C0700
78FC0E00
71BC1C00
73BC1C00
F73C7800
FE1FF000
F81FC000
700F8000
ENDCHAR
STARTCHAR Wacute
ENCODING 7810
SWIDTH 941 0
DWIDTH 34 0
BBX 34 35 2 0
BITMAP
000000C000
000001E000
000001E000
000003C000
0000078000
00000F0000
0000080000
0000000000
0F80000380
3FC0000F80
7FE0000FC0
78E00007C0
01E00007C0
03E00C07C0
03C03E03C0
07C07C03C0
07C0FC03C0
0F81F80780
0F83F00780
1F07F00780
1F0FE00780
1E0FE00F00
3E1DC00F00
3C3FC00E00
3C7BC01E00
7873C01C00
78E3803C00
79C3803800
7187807000
738780E000
F70381E000
7603838000
7E03C70000
7C01FE0000
3800F80000
ENDCHAR
STARTCHAR wacute
ENCODING 7811
SWIDTH 750 0
DWIDTH 27 0
BBX 26 28 1 0
BITMAP
00006000
0000F000
0000F000
0001F000
0001E000
0003C000
00078000
000E0000
00080000
00000000
1E000700
3F010780
1F078780
0F0783C0
0F0F03C0
0E0F0380
1E1F0380
1C1E0380
1C3E0780
3C7C0700
387C0700
78FC0E00
71BC1C00
73BC1C00
F73C7800
FE1FF000
F81FC000
700F8000
ENDCHAR
STARTCHAR Wdieresis
ENCODING 7812
SWIDTH 941 0
DWIDTH 34 0
BBX 34 34 2 0
BITMAP
0000F0F000
0001F1F000
0001F1F000
0001F1F000
0000E0E000
0000000000
0000000000
0F80000380
3FC0000F80
7FE0000FC0
78E00007C0
01E00007C0
03E00C07C0
03C03E03C0
07C07C03C0
0780F803C0
0F81F80780
0F03F00780
1F07F00780
1E0FE00780
1E1FE00F00
3C1DC00F00
3C3BC00E00
3873C01E00
78F3C01C00
78E3803C00
71C7807800
738780F000
738780E000
F70381E000
7603878000
7C03FF0000
7C01FE0000
3800F80000
ENDCHAR
STARTCHAR wdieresis
ENCODING 7813
SWIDTH 750 0
DWIDTH 27 0
BBX 26 27 1 0
BITMAP
001C1C00
003E3E00
007E3E00
003C3E00
003C3C00
00000000
00000000
00000000
00000000
1E000700
3F010780
1F078780
0F0783C0
0F0F03C0
0E0F0380
1E1F0380
1C1E0380
1C3E0780
3C7C0700
387C0700
78FC0E00
71BC1C00
73BC1C00
F73C7800
FE1FF000
F81FC000
700F8000
ENDCHAR
STARTCHAR Ygrave
ENCODING 7922
SWIDTH 580 0
DWIDTH 21 0
BBX 24 45 1 -10
BITMAP
000200
000E00
000F00
000F00
000F80
0007C0
0001C0
000000
03C006
07E00F
03E01F
01E01E
01E03E
03C03C
03C07C
078078
0780F8
0F80F8
0F01F0
0F01F0
1E03F0
1E03E0
3C07E0
3C07C0
780FC0
781FC0
781B80
F03F80
F07780
F0E700
F0CF00
F38E00
FF1E00
FE1C00
783C00
003800
007800
00F000
01E000
01E000
03C000
078000
1F0000
7C0000
780000
ENDCHAR
STARTCHAR ygrave
ENCODING 7923
SWIDTH 549 0
DWIDTH 20 0
BBX 19 38 1 -10
BITMAP
003800
007800
007800
007800
003800
003800
001C00
000C00
000400
000000
0F00C0
1F01E0
0F03C0
0F03C0
0F07C0
0E0780
1E0F80
1E0F80
3C1F00
3C3F00
783F00
786E00
F0DE00
F1DE00
F39C00
FF3C00
FE3800
783800
007000
007000
00E000
01E000
01C000
038000
0F8000
1F0000
7C0000
380000
ENDCHAR
STARTCHAR endash
ENCODING 8211
SWIDTH 751 0
DWIDTH 27 0
BBX 22 3 3 9
BITMAP
7FFFFC
FFFFF8
FFFFF8
ENDCHAR
STARTCHAR emdash
ENCODING 8212
SWIDTH 1066 0
DWIDTH 38 0
BBX 33 3 3 9
BITMAP
7FFFFFFF80
FFFFFFFF80
FFFFFFFF00
ENDCHAR
STARTCHAR quoteleft
ENCODING 8216
SWIDTH 268 0
DWIDTH 10 0
BBX 6 9 5 20
BITMAP
0C
38
70
70
F0
F0
F0
F8
70
ENDCHAR
STARTCHAR quoteright
ENCODING 8217
SWIDTH 268 0
DWIDTH 10 0
BBX 6 9 5 20
BITMAP
3C
3C
3C
1C
1C
1C
38
70
E0
ENDCHAR
STARTCHAR quotesinglbase
ENCODING 8218
SWIDTH 268 0
DWIDTH 10 0
BBX 6 9 0 -4
BITMAP
38
3C
3C
1C
1C
3C
38
70
E0
ENDCHAR
STARTCHAR quotedblleft
ENCODING 8220
SWIDTH 485 0
DWIDTH 17 0
BBX 14 9 5 20
BITMAP
0E1C
1C38
3870
70E0
70E0
F1E0
F1E0
F9F0
70E0
ENDCHAR
STARTCHAR quotedblright
ENCODING 8221
SWIDTH 480 0
DWIDTH 17 0
BBX 14 9 5 21
BITMAP
1C38
3E7C
1E3C
1E3C
1E3C
1C38
3870
70E0
E1C0
ENDCHAR
STARTCHAR quotedblbase
ENCODING 8222
SWIDTH 463 0
DWIDTH 17 0
BBX 13 9 0 -4
BITMAP
3870
3C78
3C78
1C38
1C38
3C38
3870
70E0
E1C0
ENDCHAR
STARTCHAR dagger
ENCODING 8224
SWIDTH 488 0
DWIDTH 18 0
BBX 15 27 3 0
BITMAP
00E0
01F0
01F0
01F0
01E0
03E0
7FFE
7FFE
3FF8
03C0
07C0
0780
0780
0F00
0F00
0F00
0E00
1E00
1C00
1C00
3C00
3800
3000
7000
6000
E000
C000
ENDCHAR
STARTCHAR daggerdbl
ENCODING 8225
SWIDTH 488 0
DWIDTH 18 0
BBX 16 27 2 0
BITMAP
0070
00F8
00F8
00F8
00F0
01F0
3DFF
3FFF
1FFE
03E0
03E0
03C0
03C0
0780
0780
47F8
FFF8
3FE0
0E00
0E00
1E00
1C00
1C00
3800
3000
7000
6000
ENDCHAR
STARTCHAR bullet
ENCODING 8226
SWIDTH 437 0
DWIDTH 16 0
BBX 9 8 4 8
BITMAP
1E00
7F00
FF00
FF80
FF80
FF00
7F00
7E00
ENDCHAR
STARTCHAR ellipsis
ENCODING 8230
SWIDTH 810 0
DWIDTH 29 0
BBX 25 5 1 0
BITMAP
781C0F00
FC3E1F80
FC3E1F80
F83E1F80
783C0F00
ENDCHAR
STARTCHAR perthousand
ENCODING 8240
SWIDTH 1184 0
DWIDTH 43 0
BBX 37 27 3 0
BITMAP
0F801C0000
1FC0380000
3CE0780000
78E0700000
F0E0E00000
F0E1E00000
E1E1C00000
E1E3800000
E3C7800000
E787000000
7F0E000000
3E1E000000
001C000000
0038000000
0078000000
00707C03E0
00E1FE07F0
01E3CE0E78
01C38F1E38
03878F3C38
07870F3C78
070F0F3878
0E0F1E3870
1E0F1E38F0
1C073C39E0
3807F83FC0
3003E00F00
ENDCHAR
STARTCHAR guilsinglleft
ENCODING 8249
SWIDTH 413 0
DWIDTH 15 0
BBX 11 14 2 4
BITMAP
0020
00E0
03C0
0780
1F00
7C00
7800
F800
7C00
3C00
1E00
0F00
0780
0380
ENDCHAR
STARTCHAR guilsinglright
ENCODING 8250
SWIDTH 416 0
DWIDTH 15 0
BBX 11 14 2 4
BITMAP
3800
3C00
1E00
0F00
0780
03C0
03E0
03E0
07C0
0F00
3E00
7800
E000
C000
ENDCHAR
STARTCHAR fraction
ENCODING 8260
SWIDTH 580 0
DWIDTH 21 0
BBX 19 29 1 0
BITMAP
000060
0000E0
0001C0
0003C0
000380
000780
000700
000E00
001E00
001C00
003C00
003800
007000
00F000
00E000
01E000
01C000
03C000
038000
070000
0F0000
0E0000
1E0000
1C0000
380000
780000
700000
F00000
E00000
ENDCHAR
STARTCHAR Euro
ENCODING 8364
SWIDTH 622 0
DWIDTH 22 0
BBX 22 27 2 0
BITMAP
0001F0
000FF8
001F18
003C1C
00781C
00F03C
01F03C
03E078
03C0F8
07C0F0
0780E0
0F8000
3FFE00
7FF800
1F0000
1E0000
1E0000
FFF800
FFF000
1E0000
1E0000
1E0000
1E0100
1F0380
0F8F80
07FF00
01FC00
ENDCHAR
STARTCHAR trademark
ENCODING 8482
SWIDTH 1084 0
DWIDTH 39 0
BBX 29 14 6 13
BITMAP
7FFC7038
FFFCF878
FFF9F8F8
0701F1B8
0E03F1B8
0E037370
1E077770
1C067670
1C0E7E70
3C0C7C70
381C7CF0
383878F0
3C387870
1E707078
ENDCHAR
STARTCHAR Omega
ENCODING 8486
SWIDTH 839 0
DWIDTH 30 0
BBX 27 27 2 0
BITMAP
007F8000
01FFE000
07E0F800
0F803C00
1F001E00
1E000F00
3C000F00
3C000780
78000780
78000780
780007C0
780007C0
780007C0
780007C0
780007C0
78000780
7C000780
3C000F80
3C000F00
1E001F00
1E001E00
0F003C00
07803800
C38070C0
F9C0E7E0
FFE1FFC0
7FE1FFC0
ENDCHAR
STARTCHAR partialdiff
ENCODING 8706
SWIDTH 580 0
DWIDTH 21 0
BBX 20 29 1 0
BITMAP
000F00
003F80
00F9C0
00F0E0
00E0E0
00E0E0
00E0F0
0000F0
0000F0
00FCF0
03FEF0
07C7E0
0F83E0
1F03E0
3E03E0
3C03C0
7C03C0
7807C0
F80780
F80780
F00F80
F01F00
F01E00
F03E00
F07C00
F0F800
79F000
3FE000
1F8000
ENDCHAR
STARTCHAR Delta
ENCODING 8710
SWIDTH 663 0
DWIDTH 24 0
BBX 23 21 0 0
BITMAP
001C00
003E00
003E00
007F00
006F00
00E780
00C780
01C3C0
0183C0
0381C0
0701E0
0700E0
0E00F0
0C0070
1C0078
180078
38003C
30003C
70001E
7FFFFE
FFFFFC
ENDCHAR
STARTCHAR product
ENCODING 8719
SWIDTH 667 0
DWIDTH 24 0
BBX 18 30 3 -3
BITMAP
3FFFC0
FFFFC0
F001C0
F001C0
F001C0
F001C0
F001C0
F001C0
F001C0
F001C0
F001C0
F001C0
F001C0
F001C0
F001C0
F001C0
F001C0
F001C0
F001C0
F001C0
F001C0
F001C0
F001C0
F001C0
F001C0
F001C0
F001C0
F001C0
F003C0
E00180
ENDCHAR
STARTCHAR summation
ENCODING 8721
SWIDTH 677 0
DWIDTH 24 0
BBX 21 30 1 -3
BITMAP
0FFFF8
1FFFF8
3E0000
3F0000
1F0000
0F8000
0FC000
07C000
03E000
03F000
01F000
00F800
00FC00
007C00
003E00
003C00
003800
007800
00F000
01E000
03C000
078000
070000
0F0000
1E0000
3C0000
780000
FFFFF0
FFFFF0
FFFFE0
ENDCHAR
STARTCHAR minus
ENCODING 8722
SWIDTH 617 0
DWIDTH 22 0
BBX 18 2 2 12
BITMAP
7FFFC0
FFFFC0
ENDCHAR
STARTCHAR radical
ENCODING 8730
SWIDTH 709 0
DWIDTH 26 0
BBX 27 34 1 0
BITMAP
00000060
00000060
000000E0
000000E0
000001E0
000001E0
000003C0
000003C0
00000780
00000780
00000F00
00000E00
00001E00
00001C00
00003C00
00003800
0C007800
1F00F000
3F00E000
3F01E000
F701C000
E783C000
07838000
07870000
03870000
038E0000
03CE0000
03DC0000
01DC0000
01F80000
01F00000
01F00000
01E00000
00E00000
ENDCHAR
STARTCHAR infinity
ENCODING 8734
SWIDTH 681 0
DWIDTH 25 0
BBX 21 10 2 8
BITMAP
3F07E0
7F9FF0
7FFF38
F0FC18
E07818
E0F838
E1F838
F7FFF8
7FCFF0
3F07E0
ENDCHAR
STARTCHAR integral
ENCODING 8747
SWIDTH 583 0
DWIDTH 21 0
BBX 28 41 -3 -7
BITMAP
00000100
000007E0
00000FF0
00001E30
00003C30
00003C70
00007870
000070F0
0000F1E0
0000F0E0
0001E000
0001E000
0001C000
0003C000
0003C000
0003C000
00078000
00078000
00078000
000F0000
000F0000
000F0000
001E0000
001E0000
001E0000
001E0000
003C0000
003C0000
003C0000
00780000
00780000
30780000
78F00000
78F00000
F1E00000
E1E00000
E3C00000
C7800000
EF800000
7F000000
3C000000
ENDCHAR
STARTCHAR approxequal
ENCODING 8776
SWIDTH 671 0
DWIDTH 24 0
BBX 21 16 2 4
BITMAP
07E010
0FF018
1FF830
38FC70
707FE0
603FC0
601F80
000000
078020
1FC030
3FE060
7BF0E0
61FFC0
C0FF80
C07F00
001C00
ENDCHAR
STARTCHAR notequal
ENCODING 8800
SWIDTH 617 0
DWIDTH 22 0
BBX 18 23 3 2
BITMAP
000100
000700
000F00
000E00
001C00
001C00
003800
7FFFC0
FFFFC0
7FFF00
01E000
01C000
038000
038000
FFFF80
FFFF80
7FFF00
1C0000
1C0000
380000
700000
700000
E00000
ENDCHAR
STARTCHAR lessequal
ENCODING 8804
SWIDTH 704 0
DWIDTH 25 0
BBX 18 24 2 0
BITMAP
0000C0
0001C0
0007C0
001F00
007C00
01F000
07E000
0F8000
3E0000
FC0000
FC0000
3F0000
0F8000
03E000
01F800
007E00
001F00
0007C0
0001C0
000000
000000
3FFFC0
7FFFC0
FFFFC0
ENDCHAR
STARTCHAR greaterequal
ENCODING 8805
SWIDTH 617 0
DWIDTH 22 0
BBX 18 24 2 0
BITMAP
600000
F80000
7E0000
1F0000
07C000
01F000
00FC00
003F00
000F80
0007C0
000F80
003E00
00FC00
03F000
07C000
1F0000
7C0000
F00000
E00000
000000
000000
3FFF80
FFFFC0
FFFF80
ENDCHAR
STARTCHAR lozenge
ENCODING 9674
SWIDTH 580 0
DWIDTH 21 0
BBX 17 27 2 0
BITMAP
01C000
01C000
03E000
07E000
07F000
0E7800
0E3800
1C3C00
381C00
381E00
700F00
600700
E00780
E00380
E00380
F00700
700700
380E00
3C1C00
1C1C00
1E3800
0E7800
077000
07E000
03E000
03C000
01C000
ENDCHAR
STARTCHAR commaaccent
ENCODING 63171
SWIDTH 250 0
DWIDTH 9 0
BBX 6 7 1 -9
BITMAP
3C
3C
3C
1C
38
70
E0
ENDCHAR
STARTCHAR ff
ENCODING 64256
SWIDTH 773 0
DWIDTH 28 0
BBX 34 34 -1 -5
BITMAP
0003C01F00
000FF03F80
001E7079C0
003C70F1C0
003C70E1C0
0078F1E3C0
0079F1C7C0
0071E3C780
00F0C3C300
00F003C000
00F0038000
00E0078000
01E0078000
01FFFFF800
03FFFFFC00
1FFFFFFC00
3FC00E0000
03801E0000
07801E0000
07801E0000
07803C0000
0F003C0000
0F003C0000
0F00380000
0E00780000
1E00780000
1E00780000
1C00F00000
3C00F00000
3C01E00000
7801E00000
7801E00000
F003C00000
E003800000
ENDCHAR
STARTCHAR fi
ENCODING 64257
SWIDTH 623 0
DWIDTH 22 0
BBX 24 35 -1 -5
BITMAP
0000F8
0003FE
00078F
000F07
001E07
003C07
00380F
00780F
00781F
00F01E
00F00C
00F000
01E7FC
01FFFC
07FFFC
1FF03C
3FC03C
1BC038
038078
078070
078070
0700F0
0F00E0
0F01E0
0F01C0
1E01C0
1E03C0
1E03F8
3C01F8
3C00F0
380000
780000
780000
F00000
400000
ENDCHAR
STARTCHAR fl
ENCODING 64258
SWIDTH 637 0
DWIDTH 23 0
BBX 25 35 -1 -5
BITMAP
0001FC00
0003FF00
000F8F00
000F0780
001E0780
003C0780
003C0780
00780700
00780F00
00F00F00
00F00F00
00F00E00
01E01E00
01E01E00
01FE1C00
07FF3C00
1FFF3C00
1FC07800
03807800
07807800
0780F000
0780F000
0F00F000
0F01E000
0F01E000
1E01E000
1E01E400
1E01FC00
3C00F800
3C00F000
78000000
78000000
F0000000
F0000000
40000000
ENDCHAR
STARTCHAR .notdef
ENCODING -1
SWIDTH 896 0
DWIDTH 32 0
BBX 33 31 2 0
BITMAP
007FFFFF80
00FFFFFF80
00FFFFFF80
01FFFFFF80
01FFFFFF80
01FFFFFF00
01FFFFFF00
03F8FC3F00
03F0F83E00
03F0E0FE00
07F0C1FE00
07F0C7FE00
07F08FFC00
0FF09FFC00
0FF03FFC00
0FF87FF800
0FF87FF800
1FF87FF800
1FF03FF000
1FE03FF000
3FC21FF000
3F861DF000
3F0F01E000
3E1F03E000
7F3F87E000
7FFFFFC000
7FFFFFC000
FFFFFFC000
FFFFFF8000
FFFFFF8000
FFFFFF0000
ENDCHAR
ENDFONT
